mtllib scene.mtl
usemtl light
v -0.850000 0.425000 -0.275000
v -0.850000 0.575000 -0.275000
v 0.850000 0.575000 -0.275000
v 0.850000 0.425000 -0.275000
vt 0 0
vt 1 0
vt 1 1
vt 0 1
f 1/1 2/2 3/3 4/4
usemtl light
v -0.850000 0.425000 0.275000
v 0.850000 0.425000 0.275000
v 0.850000 0.575000 0.275000
v -0.850000 0.575000 0.275000
vt 0 0
vt 1 0
vt 1 1
vt 0 1
f 5/5 6/6 7/7 8/8
usemtl light
v -0.850000 0.425000 -0.275000
v -0.850000 0.425000 0.275000
v -0.850000 0.575000 0.275000
v -0.850000 0.575000 -0.275000
vt 0 0
vt 1 0
vt 1 1
vt 0 1
f 9/9 10/10 11/11 12/12
usemtl light
v 0.850000 0.425000 -0.275000
v 0.850000 0.575000 -0.275000
v 0.850000 0.575000 0.275000
v 0.850000 0.425000 0.275000
vt 0 0
vt 1 0
vt 1 1
vt 0 1
f 13/13 14/14 15/15 16/16
usemtl light
v -0.850000 0.425000 -0.275000
v 0.850000 0.425000 -0.275000
v 0.850000 0.425000 0.275000
v -0.850000 0.425000 0.275000
vt 0 0
vt 1 0
vt 1 1
vt 0 1
f 17/17 18/18 19/19 20/20
usemtl light
v -0.850000 0.575000 -0.275000
v -0.850000 0.575000 0.275000
v 0.850000 0.575000 0.275000
v 0.850000 0.575000 -0.275000
vt 0 0
vt 1 0
vt 1 1
vt 0 1
f 21/21 22/22 23/23 24/24
usemtl light
v -0.850000 0.550000 -0.280000
v -0.850000 1.250000 -0.280000
v 0.850000 1.250000 -0.280000
v 0.850000 0.550000 -0.280000
vt 0 0
vt 1 0
vt 1 1
vt 0 1
f 25/25 26/26 27/27 28/28
usemtl light
v -0.850000 0.550000 -0.160000
v 0.850000 0.550000 -0.160000
v 0.850000 1.250000 -0.160000
v -0.850000 1.250000 -0.160000
vt 0 0
vt 1 0
vt 1 1
vt 0 1
f 29/29 30/30 31/31 32/32
usemtl light
v -0.850000 0.550000 -0.280000
v -0.850000 0.550000 -0.160000
v -0.850000 1.250000 -0.160000
v -0.850000 1.250000 -0.280000
vt 0 0
vt 1 0
vt 1 1
vt 0 1
f 33/33 34/34 35/35 36/36
usemtl light
v 0.850000 0.550000 -0.280000
v 0.850000 1.250000 -0.280000
v 0.850000 1.250000 -0.160000
v 0.850000 0.550000 -0.160000
vt 0 0
vt 1 0
vt 1 1
vt 0 1
f 37/37 38/38 39/39 40/40
usemtl light
v -0.850000 0.550000 -0.280000
v 0.850000 0.550000 -0.280000
v 0.850000 0.550000 -0.160000
v -0.850000 0.550000 -0.160000
vt 0 0
vt 1 0
vt 1 1
vt 0 1
f 41/41 42/42 43/43 44/44
usemtl light
v -0.850000 1.250000 -0.280000
v -0.850000 1.250000 -0.160000
v 0.850000 1.250000 -0.160000
v 0.850000 1.250000 -0.280000
vt 0 0
vt 1 0
vt 1 1
vt 0 1
f 45/45 46/46 47/47 48/48
usemtl metal
v -0.710000 0.000000 -0.200000
v -0.710000 0.500000 -0.200000
v -0.590000 0.500000 -0.200000
v -0.590000 0.000000 -0.200000
vt 0 0
vt 1 0
vt 1 1
vt 0 1
f 49/49 50/50 51/51 52/52
usemtl metal
v -0.710000 0.000000 0.200000
v -0.590000 0.000000 0.200000
v -0.590000 0.500000 0.200000
v -0.710000 0.500000 0.200000
vt 0 0
vt 1 0
vt 1 1
vt 0 1
f 53/53 54/54 55/55 56/56
usemtl metal
v -0.710000 0.000000 -0.200000
v -0.710000 0.000000 0.200000
v -0.710000 0.500000 0.200000
v -0.710000 0.500000 -0.200000
vt 0 0
vt 1 0
vt 1 1
vt 0 1
f 57/57 58/58 59/59 60/60
usemtl metal
v -0.590000 0.000000 -0.200000
v -0.590000 0.500000 -0.200000
v -0.590000 0.500000 0.200000
v -0.590000 0.000000 0.200000
vt 0 0
vt 1 0
vt 1 1
vt 0 1
f 61/61 62/62 63/63 64/64
usemtl metal
v -0.710000 0.000000 -0.200000
v -0.590000 0.000000 -0.200000
v -0.590000 0.000000 0.200000
v -0.710000 0.000000 0.200000
vt 0 0
vt 1 0
vt 1 1
vt 0 1
f 65/65 66/66 67/67 68/68
usemtl metal
v -0.710000 0.500000 -0.200000
v -0.710000 0.500000 0.200000
v -0.590000 0.500000 0.200000
v -0.590000 0.500000 -0.200000
vt 0 0
vt 1 0
vt 1 1
vt 0 1
f 69/69 70/70 71/71 72/72
usemtl metal
v 0.590000 0.000000 -0.200000
v 0.590000 0.500000 -0.200000
v 0.710000 0.500000 -0.200000
v 0.710000 0.000000 -0.200000
vt 0 0
vt 1 0
vt 1 1
vt 0 1
f 73/73 74/74 75/75 76/76
usemtl metal
v 0.590000 0.000000 0.200000
v 0.710000 0.000000 0.200000
v 0.710000 0.500000 0.200000
v 0.590000 0.500000 0.200000
vt 0 0
vt 1 0
vt 1 1
vt 0 1
f 77/77 78/78 79/79 80/80
usemtl metal
v 0.590000 0.000000 -0.200000
v 0.590000 0.000000 0.200000
v 0.590000 0.500000 0.200000
v 0.590000 0.500000 -0.200000
vt 0 0
vt 1 0
vt 1 1
vt 0 1
f 81/81 82/82 83/83 84/84
usemtl metal
v 0.710000 0.000000 -0.200000
v 0.710000 0.500000 -0.200000
v 0.710000 0.500000 0.200000
v 0.710000 0.000000 0.200000
vt 0 0
vt 1 0
vt 1 1
vt 0 1
f 85/85 86/86 87/87 88/88
usemtl metal
v 0.590000 0.000000 -0.200000
v 0.710000 0.000000 -0.200000
v 0.710000 0.000000 0.200000
v 0.590000 0.000000 0.200000
vt 0 0
vt 1 0
vt 1 1
vt 0 1
f 89/89 90/90 91/91 92/92
usemtl metal
v 0.590000 0.500000 -0.200000
v 0.590000 0.500000 0.200000
v 0.710000 0.500000 0.200000
v 0.710000 0.500000 -0.200000
vt 0 0
vt 1 0
vt 1 1
vt 0 1
f 93/93 94/94 95/95 96/96
