mtllib scene.mtl
usemtl brick
v -1.000000 0.000000 -0.850000
v -1.000000 1.600000 -0.850000
v 1.000000 1.600000 -0.850000
v 1.000000 0.000000 -0.850000
vt 0 0
vt 1 0
vt 1 1
vt 0 1
f 1/1 2/2 3/3 4/4
usemtl brick
v -1.000000 0.000000 0.850000
v 1.000000 0.000000 0.850000
v 1.000000 1.600000 0.850000
v -1.000000 1.600000 0.850000
vt 0 0
vt 1 0
vt 1 1
vt 0 1
f 5/5 6/6 7/7 8/8
usemtl brick
v -1.000000 0.000000 -0.850000
v -1.000000 0.000000 0.850000
v -1.000000 1.600000 0.850000
v -1.000000 1.600000 -0.850000
vt 0 0
vt 1 0
vt 1 1
vt 0 1
f 9/9 10/10 11/11 12/12
usemtl brick
v 1.000000 0.000000 -0.850000
v 1.000000 1.600000 -0.850000
v 1.000000 1.600000 0.850000
v 1.000000 0.000000 0.850000
vt 0 0
vt 1 0
vt 1 1
vt 0 1
f 13/13 14/14 15/15 16/16
usemtl brick
v -1.000000 0.000000 -0.850000
v 1.000000 0.000000 -0.850000
v 1.000000 0.000000 0.850000
v -1.000000 0.000000 0.850000
vt 0 0
vt 1 0
vt 1 1
vt 0 1
f 17/17 18/18 19/19 20/20
usemtl brick
v -1.000000 1.600000 -0.850000
v -1.000000 1.600000 0.850000
v 1.000000 1.600000 0.850000
v 1.000000 1.600000 -0.850000
vt 0 0
vt 1 0
vt 1 1
vt 0 1
f 21/21 22/22 23/23 24/24
usemtl snow
v -1.175000 1.590000 -1.000000
v -1.175000 1.810000 -1.000000
v 1.175000 1.810000 -1.000000
v 1.175000 1.590000 -1.000000
vt 0 0
vt 1 0
vt 1 1
vt 0 1
f 25/25 26/26 27/27 28/28
usemtl snow
v -1.175000 1.590000 1.000000
v 1.175000 1.590000 1.000000
v 1.175000 1.810000 1.000000
v -1.175000 1.810000 1.000000
vt 0 0
vt 1 0
vt 1 1
vt 0 1
f 29/29 30/30 31/31 32/32
usemtl snow
v -1.175000 1.590000 -1.000000
v -1.175000 1.590000 1.000000
v -1.175000 1.810000 1.000000
v -1.175000 1.810000 -1.000000
vt 0 0
vt 1 0
vt 1 1
vt 0 1
f 33/33 34/34 35/35 36/36
usemtl snow
v 1.175000 1.590000 -1.000000
v 1.175000 1.810000 -1.000000
v 1.175000 1.810000 1.000000
v 1.175000 1.590000 1.000000
vt 0 0
vt 1 0
vt 1 1
vt 0 1
f 37/37 38/38 39/39 40/40
usemtl snow
v -1.175000 1.590000 -1.000000
v 1.175000 1.590000 -1.000000
v 1.175000 1.590000 1.000000
v -1.175000 1.590000 1.000000
vt 0 0
vt 1 0
vt 1 1
vt 0 1
f 41/41 42/42 43/43 44/44
usemtl snow
v -1.175000 1.810000 -1.000000
v -1.175000 1.810000 1.000000
v 1.175000 1.810000 1.000000
v 1.175000 1.810000 -1.000000
vt 0 0
vt 1 0
vt 1 1
vt 0 1
f 45/45 46/46 47/47 48/48
usemtl brick
v 0.425000 1.700000 -0.150000
v 0.425000 2.300000 -0.150000
v 0.675000 2.300000 -0.150000
v 0.675000 1.700000 -0.150000
vt 0 0
vt 1 0
vt 1 1
vt 0 1
f 49/49 50/50 51/51 52/52
usemtl brick
v 0.425000 1.700000 0.150000
v 0.675000 1.700000 0.150000
v 0.675000 2.300000 0.150000
v 0.425000 2.300000 0.150000
vt 0 0
vt 1 0
vt 1 1
vt 0 1
f 53/53 54/54 55/55 56/56
usemtl brick
v 0.425000 1.700000 -0.150000
v 0.425000 1.700000 0.150000
v 0.425000 2.300000 0.150000
v 0.425000 2.300000 -0.150000
vt 0 0
vt 1 0
vt 1 1
vt 0 1
f 57/57 58/58 59/59 60/60
usemtl brick
v 0.675000 1.700000 -0.150000
v 0.675000 2.300000 -0.150000
v 0.675000 2.300000 0.150000
v 0.675000 1.700000 0.150000
vt 0 0
vt 1 0
vt 1 1
vt 0 1
f 61/61 62/62 63/63 64/64
usemtl brick
v 0.425000 1.700000 -0.150000
v 0.675000 1.700000 -0.150000
v 0.675000 1.700000 0.150000
v 0.425000 1.700000 0.150000
vt 0 0
vt 1 0
vt 1 1
vt 0 1
f 65/65 66/66 67/67 68/68
usemtl brick
v 0.425000 2.300000 -0.150000
v 0.425000 2.300000 0.150000
v 0.675000 2.300000 0.150000
v 0.675000 2.300000 -0.150000
vt 0 0
vt 1 0
vt 1 1
vt 0 1
f 69/69 70/70 71/71 72/72
usemtl window
v -0.760000 0.700000 0.845000
v -0.760000 1.200000 0.845000
v -0.340000 1.200000 0.845000
v -0.340000 0.700000 0.845000
vt 0 0
vt 1 0
vt 1 1
vt 0 1
f 73/73 74/74 75/75 76/76
usemtl window
v -0.760000 0.700000 0.875000
v -0.340000 0.700000 0.875000
v -0.340000 1.200000 0.875000
v -0.760000 1.200000 0.875000
vt 0 0
vt 1 0
vt 1 1
vt 0 1
f 77/77 78/78 79/79 80/80
usemtl window
v -0.760000 0.700000 0.845000
v -0.760000 0.700000 0.875000
v -0.760000 1.200000 0.875000
v -0.760000 1.200000 0.845000
vt 0 0
vt 1 0
vt 1 1
vt 0 1
f 81/81 82/82 83/83 84/84
usemtl window
v -0.340000 0.700000 0.845000
v -0.340000 1.200000 0.845000
v -0.340000 1.200000 0.875000
v -0.340000 0.700000 0.875000
vt 0 0
vt 1 0
vt 1 1
vt 0 1
f 85/85 86/86 87/87 88/88
usemtl window
v -0.760000 0.700000 0.845000
v -0.340000 0.700000 0.845000
v -0.340000 0.700000 0.875000
v -0.760000 0.700000 0.875000
vt 0 0
vt 1 0
vt 1 1
vt 0 1
f 89/89 90/90 91/91 92/92
usemtl window
v -0.760000 1.200000 0.845000
v -0.760000 1.200000 0.875000
v -0.340000 1.200000 0.875000
v -0.340000 1.200000 0.845000
vt 0 0
vt 1 0
vt 1 1
vt 0 1
f 93/93 94/94 95/95 96/96
usemtl window
v 0.340000 0.700000 0.845000
v 0.340000 1.200000 0.845000
v 0.760000 1.200000 0.845000
v 0.760000 0.700000 0.845000
vt 0 0
vt 1 0
vt 1 1
vt 0 1
f 97/97 98/98 99/99 100/100
usemtl window
v 0.340000 0.700000 0.875000
v 0.760000 0.700000 0.875000
v 0.760000 1.200000 0.875000
v 0.340000 1.200000 0.875000
vt 0 0
vt 1 0
vt 1 1
vt 0 1
f 101/101 102/102 103/103 104/104
usemtl window
v 0.340000 0.700000 0.845000
v 0.340000 0.700000 0.875000
v 0.340000 1.200000 0.875000
v 0.340000 1.200000 0.845000
vt 0 0
vt 1 0
vt 1 1
vt 0 1
f 105/105 106/106 107/107 108/108
usemtl window
v 0.760000 0.700000 0.845000
v 0.760000 1.200000 0.845000
v 0.760000 1.200000 0.875000
v 0.760000 0.700000 0.875000
vt 0 0
vt 1 0
vt 1 1
vt 0 1
f 109/109 110/110 111/111 112/112
usemtl window
v 0.340000 0.700000 0.845000
v 0.760000 0.700000 0.845000
v 0.760000 0.700000 0.875000
v 0.340000 0.700000 0.875000
vt 0 0
vt 1 0
vt 1 1
vt 0 1
f 113/113 114/114 115/115 116/116
usemtl window
v 0.340000 1.200000 0.845000
v 0.340000 1.200000 0.875000
v 0.760000 1.200000 0.875000
v 0.760000 1.200000 0.845000
vt 0 0
vt 1 0
vt 1 1
vt 0 1
f 117/117 118/118 119/119 120/120
usemtl dark
v -0.175000 0.000000 0.850000
v -0.175000 0.900000 0.850000
v 0.175000 0.900000 0.850000
v 0.175000 0.000000 0.850000
vt 0 0
vt 1 0
vt 1 1
vt 0 1
f 121/121 122/122 123/123 124/124
usemtl dark
v -0.175000 0.000000 0.890000
v 0.175000 0.000000 0.890000
v 0.175000 0.900000 0.890000
v -0.175000 0.900000 0.890000
vt 0 0
vt 1 0
vt 1 1
vt 0 1
f 125/125 126/126 127/127 128/128
usemtl dark
v -0.175000 0.000000 0.850000
v -0.175000 0.000000 0.890000
v -0.175000 0.900000 0.890000
v -0.175000 0.900000 0.850000
vt 0 0
vt 1 0
vt 1 1
vt 0 1
f 129/129 130/130 131/131 132/132
usemtl dark
v 0.175000 0.000000 0.850000
v 0.175000 0.900000 0.850000
v 0.175000 0.900000 0.890000
v 0.175000 0.000000 0.890000
vt 0 0
vt 1 0
vt 1 1
vt 0 1
f 133/133 134/134 135/135 136/136
usemtl dark
v -0.175000 0.000000 0.850000
v 0.175000 0.000000 0.850000
v 0.175000 0.000000 0.890000
v -0.175000 0.000000 0.890000
vt 0 0
vt 1 0
vt 1 1
vt 0 1
f 137/137 138/138 139/139 140/140
usemtl dark
v -0.175000 0.900000 0.850000
v -0.175000 0.900000 0.890000
v 0.175000 0.900000 0.890000
v 0.175000 0.900000 0.850000
vt 0 0
vt 1 0
vt 1 1
vt 0 1
f 141/141 142/142 143/143 144/144
