mtllib scene.mtl
usemtl ebony
v 0.000000 0.000000 0.000000
v 0.340000 0.000000 0.000000
v 0.335814 0.000000 0.053188
v 0.000000 0.000000 0.000000
vt 0 0
vt 1 0
vt 1 1
vt 0 1
f 1/1 2/2 3/3 4/4
usemtl ebony
v 0.000000 0.000000 0.000000
v 0.335814 0.000000 0.053188
v 0.323359 0.000000 0.105066
v 0.000000 0.000000 0.000000
vt 0 0
vt 1 0
vt 1 1
vt 0 1
f 5/5 6/6 7/7 8/8
usemtl ebony
v 0.000000 0.000000 0.000000
v 0.323359 0.000000 0.105066
v 0.302942 0.000000 0.154357
v 0.000000 0.000000 0.000000
vt 0 0
vt 1 0
vt 1 1
vt 0 1
f 9/9 10/10 11/11 12/12
usemtl ebony
v 0.000000 0.000000 0.000000
v 0.302942 0.000000 0.154357
v 0.275066 0.000000 0.199847
v 0.000000 0.000000 0.000000
vt 0 0
vt 1 0
vt 1 1
vt 0 1
f 13/13 14/14 15/15 16/16
usemtl ebony
v 0.000000 0.000000 0.000000
v 0.275066 0.000000 0.199847
v 0.240416 0.000000 0.240416
v 0.000000 0.000000 0.000000
vt 0 0
vt 1 0
vt 1 1
vt 0 1
f 17/17 18/18 19/19 20/20
usemtl ebony
v 0.000000 0.000000 0.000000
v 0.240416 0.000000 0.240416
v 0.199847 0.000000 0.275066
v 0.000000 0.000000 0.000000
vt 0 0
vt 1 0
vt 1 1
vt 0 1
f 21/21 22/22 23/23 24/24
usemtl ebony
v 0.000000 0.000000 0.000000
v 0.199847 0.000000 0.275066
v 0.154357 0.000000 0.302942
v 0.000000 0.000000 0.000000
vt 0 0
vt 1 0
vt 1 1
vt 0 1
f 25/25 26/26 27/27 28/28
usemtl ebony
v 0.000000 0.000000 0.000000
v 0.154357 0.000000 0.302942
v 0.105066 0.000000 0.323359
v 0.000000 0.000000 0.000000
vt 0 0
vt 1 0
vt 1 1
vt 0 1
f 29/29 30/30 31/31 32/32
usemtl ebony
v 0.000000 0.000000 0.000000
v 0.105066 0.000000 0.323359
v 0.053188 0.000000 0.335814
v 0.000000 0.000000 0.000000
vt 0 0
vt 1 0
vt 1 1
vt 0 1
f 33/33 34/34 35/35 36/36
usemtl ebony
v 0.000000 0.000000 0.000000
v 0.053188 0.000000 0.335814
v 0.000000 0.000000 0.340000
v 0.000000 0.000000 0.000000
vt 0 0
vt 1 0
vt 1 1
vt 0 1
f 37/37 38/38 39/39 40/40
usemtl ebony
v 0.000000 0.000000 0.000000
v 0.000000 0.000000 0.340000
v -0.053188 0.000000 0.335814
v 0.000000 0.000000 0.000000
vt 0 0
vt 1 0
vt 1 1
vt 0 1
f 41/41 42/42 43/43 44/44
usemtl ebony
v 0.000000 0.000000 0.000000
v -0.053188 0.000000 0.335814
v -0.105066 0.000000 0.323359
v 0.000000 0.000000 0.000000
vt 0 0
vt 1 0
vt 1 1
vt 0 1
f 45/45 46/46 47/47 48/48
usemtl ebony
v 0.000000 0.000000 0.000000
v -0.105066 0.000000 0.323359
v -0.154357 0.000000 0.302942
v 0.000000 0.000000 0.000000
vt 0 0
vt 1 0
vt 1 1
vt 0 1
f 49/49 50/50 51/51 52/52
usemtl ebony
v 0.000000 0.000000 0.000000
v -0.154357 0.000000 0.302942
v -0.199847 0.000000 0.275066
v 0.000000 0.000000 0.000000
vt 0 0
vt 1 0
vt 1 1
vt 0 1
f 53/53 54/54 55/55 56/56
usemtl ebony
v 0.000000 0.000000 0.000000
v -0.199847 0.000000 0.275066
v -0.240416 0.000000 0.240416
v 0.000000 0.000000 0.000000
vt 0 0
vt 1 0
vt 1 1
vt 0 1
f 57/57 58/58 59/59 60/60
usemtl ebony
v 0.000000 0.000000 0.000000
v -0.240416 0.000000 0.240416
v -0.275066 0.000000 0.199847
v 0.000000 0.000000 0.000000
vt 0 0
vt 1 0
vt 1 1
vt 0 1
f 61/61 62/62 63/63 64/64
usemtl ebony
v 0.000000 0.000000 0.000000
v -0.275066 0.000000 0.199847
v -0.302942 0.000000 0.154357
v 0.000000 0.000000 0.000000
vt 0 0
vt 1 0
vt 1 1
vt 0 1
f 65/65 66/66 67/67 68/68
usemtl ebony
v 0.000000 0.000000 0.000000
v -0.302942 0.000000 0.154357
v -0.323359 0.000000 0.105066
v 0.000000 0.000000 0.000000
vt 0 0
vt 1 0
vt 1 1
vt 0 1
f 69/69 70/70 71/71 72/72
usemtl ebony
v 0.000000 0.000000 0.000000
v -0.323359 0.000000 0.105066
v -0.335814 0.000000 0.053188
v 0.000000 0.000000 0.000000
vt 0 0
vt 1 0
vt 1 1
vt 0 1
f 73/73 74/74 75/75 76/76
usemtl ebony
v 0.000000 0.000000 0.000000
v -0.335814 0.000000 0.053188
v -0.340000 0.000000 0.000000
v 0.000000 0.000000 0.000000
vt 0 0
vt 1 0
vt 1 1
vt 0 1
f 77/77 78/78 79/79 80/80
usemtl ebony
v 0.000000 0.000000 0.000000
v -0.340000 0.000000 0.000000
v -0.335814 0.000000 -0.053188
v 0.000000 0.000000 0.000000
vt 0 0
vt 1 0
vt 1 1
vt 0 1
f 81/81 82/82 83/83 84/84
usemtl ebony
v 0.000000 0.000000 0.000000
v -0.335814 0.000000 -0.053188
v -0.323359 0.000000 -0.105066
v 0.000000 0.000000 0.000000
vt 0 0
vt 1 0
vt 1 1
vt 0 1
f 85/85 86/86 87/87 88/88
usemtl ebony
v 0.000000 0.000000 0.000000
v -0.323359 0.000000 -0.105066
v -0.302942 0.000000 -0.154357
v 0.000000 0.000000 0.000000
vt 0 0
vt 1 0
vt 1 1
vt 0 1
f 89/89 90/90 91/91 92/92
usemtl ebony
v 0.000000 0.000000 0.000000
v -0.302942 0.000000 -0.154357
v -0.275066 0.000000 -0.199847
v 0.000000 0.000000 0.000000
vt 0 0
vt 1 0
vt 1 1
vt 0 1
f 93/93 94/94 95/95 96/96
usemtl ebony
v 0.000000 0.000000 0.000000
v -0.275066 0.000000 -0.199847
v -0.240416 0.000000 -0.240416
v 0.000000 0.000000 0.000000
vt 0 0
vt 1 0
vt 1 1
vt 0 1
f 97/97 98/98 99/99 100/100
usemtl ebony
v 0.000000 0.000000 0.000000
v -0.240416 0.000000 -0.240416
v -0.199847 0.000000 -0.275066
v 0.000000 0.000000 0.000000
vt 0 0
vt 1 0
vt 1 1
vt 0 1
f 101/101 102/102 103/103 104/104
usemtl ebony
v 0.000000 0.000000 0.000000
v -0.199847 0.000000 -0.275066
v -0.154357 0.000000 -0.302942
v 0.000000 0.000000 0.000000
vt 0 0
vt 1 0
vt 1 1
vt 0 1
f 105/105 106/106 107/107 108/108
usemtl ebony
v 0.000000 0.000000 0.000000
v -0.154357 0.000000 -0.302942
v -0.105066 0.000000 -0.323359
v 0.000000 0.000000 0.000000
vt 0 0
vt 1 0
vt 1 1
vt 0 1
f 109/109 110/110 111/111 112/112
usemtl ebony
v 0.000000 0.000000 0.000000
v -0.105066 0.000000 -0.323359
v -0.053188 0.000000 -0.335814
v 0.000000 0.000000 0.000000
vt 0 0
vt 1 0
vt 1 1
vt 0 1
f 113/113 114/114 115/115 116/116
usemtl ebony
v 0.000000 0.000000 0.000000
v -0.053188 0.000000 -0.335814
v -0.000000 0.000000 -0.340000
v 0.000000 0.000000 0.000000
vt 0 0
vt 1 0
vt 1 1
vt 0 1
f 117/117 118/118 119/119 120/120
usemtl ebony
v 0.000000 0.000000 0.000000
v -0.000000 0.000000 -0.340000
v 0.053188 0.000000 -0.335814
v 0.000000 0.000000 0.000000
vt 0 0
vt 1 0
vt 1 1
vt 0 1
f 121/121 122/122 123/123 124/124
usemtl ebony
v 0.000000 0.000000 0.000000
v 0.053188 0.000000 -0.335814
v 0.105066 0.000000 -0.323359
v 0.000000 0.000000 0.000000
vt 0 0
vt 1 0
vt 1 1
vt 0 1
f 125/125 126/126 127/127 128/128
usemtl ebony
v 0.000000 0.000000 0.000000
v 0.105066 0.000000 -0.323359
v 0.154357 0.000000 -0.302942
v 0.000000 0.000000 0.000000
vt 0 0
vt 1 0
vt 1 1
vt 0 1
f 129/129 130/130 131/131 132/132
usemtl ebony
v 0.000000 0.000000 0.000000
v 0.154357 0.000000 -0.302942
v 0.199847 0.000000 -0.275066
v 0.000000 0.000000 0.000000
vt 0 0
vt 1 0
vt 1 1
vt 0 1
f 133/133 134/134 135/135 136/136
usemtl ebony
v 0.000000 0.000000 0.000000
v 0.199847 0.000000 -0.275066
v 0.240416 0.000000 -0.240416
v 0.000000 0.000000 0.000000
vt 0 0
vt 1 0
vt 1 1
vt 0 1
f 137/137 138/138 139/139 140/140
usemtl ebony
v 0.000000 0.000000 0.000000
v 0.240416 0.000000 -0.240416
v 0.275066 0.000000 -0.199847
v 0.000000 0.000000 0.000000
vt 0 0
vt 1 0
vt 1 1
vt 0 1
f 141/141 142/142 143/143 144/144
usemtl ebony
v 0.000000 0.000000 0.000000
v 0.275066 0.000000 -0.199847
v 0.302942 0.000000 -0.154357
v 0.000000 0.000000 0.000000
vt 0 0
vt 1 0
vt 1 1
vt 0 1
f 145/145 146/146 147/147 148/148
usemtl ebony
v 0.000000 0.000000 0.000000
v 0.302942 0.000000 -0.154357
v 0.323359 0.000000 -0.105066
v 0.000000 0.000000 0.000000
vt 0 0
vt 1 0
vt 1 1
vt 0 1
f 149/149 150/150 151/151 152/152
usemtl ebony
v 0.000000 0.000000 0.000000
v 0.323359 0.000000 -0.105066
v 0.335814 0.000000 -0.053188
v 0.000000 0.000000 0.000000
vt 0 0
vt 1 0
vt 1 1
vt 0 1
f 153/153 154/154 155/155 156/156
usemtl ebony
v 0.000000 0.000000 0.000000
v 0.335814 0.000000 -0.053188
v 0.340000 0.000000 -0.000000
v 0.000000 0.000000 0.000000
vt 0 0
vt 1 0
vt 1 1
vt 0 1
f 157/157 158/158 159/159 160/160
usemtl ebony
v 0.340000 0.000000 0.000000
v 0.360000 0.090000 0.000000
v 0.355568 0.090000 0.056316
v 0.335814 0.000000 0.053188
vt 0 0
vt 1 0
vt 1 1
vt 0 1
f 161/161 162/162 163/163 164/164
usemtl ebony
v 0.335814 0.000000 0.053188
v 0.355568 0.090000 0.056316
v 0.342380 0.090000 0.111246
v 0.323359 0.000000 0.105066
vt 0 0
vt 1 0
vt 1 1
vt 0 1
f 165/165 166/166 167/167 168/168
usemtl ebony
v 0.323359 0.000000 0.105066
v 0.342380 0.090000 0.111246
v 0.320762 0.090000 0.163437
v 0.302942 0.000000 0.154357
vt 0 0
vt 1 0
vt 1 1
vt 0 1
f 169/169 170/170 171/171 172/172
usemtl ebony
v 0.302942 0.000000 0.154357
v 0.320762 0.090000 0.163437
v 0.291246 0.090000 0.211603
v 0.275066 0.000000 0.199847
vt 0 0
vt 1 0
vt 1 1
vt 0 1
f 173/173 174/174 175/175 176/176
usemtl ebony
v 0.275066 0.000000 0.199847
v 0.291246 0.090000 0.211603
v 0.254558 0.090000 0.254558
v 0.240416 0.000000 0.240416
vt 0 0
vt 1 0
vt 1 1
vt 0 1
f 177/177 178/178 179/179 180/180
usemtl ebony
v 0.240416 0.000000 0.240416
v 0.254558 0.090000 0.254558
v 0.211603 0.090000 0.291246
v 0.199847 0.000000 0.275066
vt 0 0
vt 1 0
vt 1 1
vt 0 1
f 181/181 182/182 183/183 184/184
usemtl ebony
v 0.199847 0.000000 0.275066
v 0.211603 0.090000 0.291246
v 0.163437 0.090000 0.320762
v 0.154357 0.000000 0.302942
vt 0 0
vt 1 0
vt 1 1
vt 0 1
f 185/185 186/186 187/187 188/188
usemtl ebony
v 0.154357 0.000000 0.302942
v 0.163437 0.090000 0.320762
v 0.111246 0.090000 0.342380
v 0.105066 0.000000 0.323359
vt 0 0
vt 1 0
vt 1 1
vt 0 1
f 189/189 190/190 191/191 192/192
usemtl ebony
v 0.105066 0.000000 0.323359
v 0.111246 0.090000 0.342380
v 0.056316 0.090000 0.355568
v 0.053188 0.000000 0.335814
vt 0 0
vt 1 0
vt 1 1
vt 0 1
f 193/193 194/194 195/195 196/196
usemtl ebony
v 0.053188 0.000000 0.335814
v 0.056316 0.090000 0.355568
v 0.000000 0.090000 0.360000
v 0.000000 0.000000 0.340000
vt 0 0
vt 1 0
vt 1 1
vt 0 1
f 197/197 198/198 199/199 200/200
usemtl ebony
v 0.000000 0.000000 0.340000
v 0.000000 0.090000 0.360000
v -0.056316 0.090000 0.355568
v -0.053188 0.000000 0.335814
vt 0 0
vt 1 0
vt 1 1
vt 0 1
f 201/201 202/202 203/203 204/204
usemtl ebony
v -0.053188 0.000000 0.335814
v -0.056316 0.090000 0.355568
v -0.111246 0.090000 0.342380
v -0.105066 0.000000 0.323359
vt 0 0
vt 1 0
vt 1 1
vt 0 1
f 205/205 206/206 207/207 208/208
usemtl ebony
v -0.105066 0.000000 0.323359
v -0.111246 0.090000 0.342380
v -0.163437 0.090000 0.320762
v -0.154357 0.000000 0.302942
vt 0 0
vt 1 0
vt 1 1
vt 0 1
f 209/209 210/210 211/211 212/212
usemtl ebony
v -0.154357 0.000000 0.302942
v -0.163437 0.090000 0.320762
v -0.211603 0.090000 0.291246
v -0.199847 0.000000 0.275066
vt 0 0
vt 1 0
vt 1 1
vt 0 1
f 213/213 214/214 215/215 216/216
usemtl ebony
v -0.199847 0.000000 0.275066
v -0.211603 0.090000 0.291246
v -0.254558 0.090000 0.254558
v -0.240416 0.000000 0.240416
vt 0 0
vt 1 0
vt 1 1
vt 0 1
f 217/217 218/218 219/219 220/220
usemtl ebony
v -0.240416 0.000000 0.240416
v -0.254558 0.090000 0.254558
v -0.291246 0.090000 0.211603
v -0.275066 0.000000 0.199847
vt 0 0
vt 1 0
vt 1 1
vt 0 1
f 221/221 222/222 223/223 224/224
usemtl ebony
v -0.275066 0.000000 0.199847
v -0.291246 0.090000 0.211603
v -0.320762 0.090000 0.163437
v -0.302942 0.000000 0.154357
vt 0 0
vt 1 0
vt 1 1
vt 0 1
f 225/225 226/226 227/227 228/228
usemtl ebony
v -0.302942 0.000000 0.154357
v -0.320762 0.090000 0.163437
v -0.342380 0.090000 0.111246
v -0.323359 0.000000 0.105066
vt 0 0
vt 1 0
vt 1 1
vt 0 1
f 229/229 230/230 231/231 232/232
usemtl ebony
v -0.323359 0.000000 0.105066
v -0.342380 0.090000 0.111246
v -0.355568 0.090000 0.056316
v -0.335814 0.000000 0.053188
vt 0 0
vt 1 0
vt 1 1
vt 0 1
f 233/233 234/234 235/235 236/236
usemtl ebony
v -0.335814 0.000000 0.053188
v -0.355568 0.090000 0.056316
v -0.360000 0.090000 0.000000
v -0.340000 0.000000 0.000000
vt 0 0
vt 1 0
vt 1 1
vt 0 1
f 237/237 238/238 239/239 240/240
usemtl ebony
v -0.340000 0.000000 0.000000
v -0.360000 0.090000 0.000000
v -0.355568 0.090000 -0.056316
v -0.335814 0.000000 -0.053188
vt 0 0
vt 1 0
vt 1 1
vt 0 1
f 241/241 242/242 243/243 244/244
usemtl ebony
v -0.335814 0.000000 -0.053188
v -0.355568 0.090000 -0.056316
v -0.342380 0.090000 -0.111246
v -0.323359 0.000000 -0.105066
vt 0 0
vt 1 0
vt 1 1
vt 0 1
f 245/245 246/246 247/247 248/248
usemtl ebony
v -0.323359 0.000000 -0.105066
v -0.342380 0.090000 -0.111246
v -0.320762 0.090000 -0.163437
v -0.302942 0.000000 -0.154357
vt 0 0
vt 1 0
vt 1 1
vt 0 1
f 249/249 250/250 251/251 252/252
usemtl ebony
v -0.302942 0.000000 -0.154357
v -0.320762 0.090000 -0.163437
v -0.291246 0.090000 -0.211603
v -0.275066 0.000000 -0.199847
vt 0 0
vt 1 0
vt 1 1
vt 0 1
f 253/253 254/254 255/255 256/256
usemtl ebony
v -0.275066 0.000000 -0.199847
v -0.291246 0.090000 -0.211603
v -0.254558 0.090000 -0.254558
v -0.240416 0.000000 -0.240416
vt 0 0
vt 1 0
vt 1 1
vt 0 1
f 257/257 258/258 259/259 260/260
usemtl ebony
v -0.240416 0.000000 -0.240416
v -0.254558 0.090000 -0.254558
v -0.211603 0.090000 -0.291246
v -0.199847 0.000000 -0.275066
vt 0 0
vt 1 0
vt 1 1
vt 0 1
f 261/261 262/262 263/263 264/264
usemtl ebony
v -0.199847 0.000000 -0.275066
v -0.211603 0.090000 -0.291246
v -0.163437 0.090000 -0.320762
v -0.154357 0.000000 -0.302942
vt 0 0
vt 1 0
vt 1 1
vt 0 1
f 265/265 266/266 267/267 268/268
usemtl ebony
v -0.154357 0.000000 -0.302942
v -0.163437 0.090000 -0.320762
v -0.111246 0.090000 -0.342380
v -0.105066 0.000000 -0.323359
vt 0 0
vt 1 0
vt 1 1
vt 0 1
f 269/269 270/270 271/271 272/272
usemtl ebony
v -0.105066 0.000000 -0.323359
v -0.111246 0.090000 -0.342380
v -0.056316 0.090000 -0.355568
v -0.053188 0.000000 -0.335814
vt 0 0
vt 1 0
vt 1 1
vt 0 1
f 273/273 274/274 275/275 276/276
usemtl ebony
v -0.053188 0.000000 -0.335814
v -0.056316 0.090000 -0.355568
v -0.000000 0.090000 -0.360000
v -0.000000 0.000000 -0.340000
vt 0 0
vt 1 0
vt 1 1
vt 0 1
f 277/277 278/278 279/279 280/280
usemtl ebony
v -0.000000 0.000000 -0.340000
v -0.000000 0.090000 -0.360000
v 0.056316 0.090000 -0.355568
v 0.053188 0.000000 -0.335814
vt 0 0
vt 1 0
vt 1 1
vt 0 1
f 281/281 282/282 283/283 284/284
usemtl ebony
v 0.053188 0.000000 -0.335814
v 0.056316 0.090000 -0.355568
v 0.111246 0.090000 -0.342380
v 0.105066 0.000000 -0.323359
vt 0 0
vt 1 0
vt 1 1
vt 0 1
f 285/285 286/286 287/287 288/288
usemtl ebony
v 0.105066 0.000000 -0.323359
v 0.111246 0.090000 -0.342380
v 0.163437 0.090000 -0.320762
v 0.154357 0.000000 -0.302942
vt 0 0
vt 1 0
vt 1 1
vt 0 1
f 289/289 290/290 291/291 292/292
usemtl ebony
v 0.154357 0.000000 -0.302942
v 0.163437 0.090000 -0.320762
v 0.211603 0.090000 -0.291246
v 0.199847 0.000000 -0.275066
vt 0 0
vt 1 0
vt 1 1
vt 0 1
f 293/293 294/294 295/295 296/296
usemtl ebony
v 0.199847 0.000000 -0.275066
v 0.211603 0.090000 -0.291246
v 0.254558 0.090000 -0.254558
v 0.240416 0.000000 -0.240416
vt 0 0
vt 1 0
vt 1 1
vt 0 1
f 297/297 298/298 299/299 300/300
usemtl ebony
v 0.240416 0.000000 -0.240416
v 0.254558 0.090000 -0.254558
v 0.291246 0.090000 -0.211603
v 0.275066 0.000000 -0.199847
vt 0 0
vt 1 0
vt 1 1
vt 0 1
f 301/301 302/302 303/303 304/304
usemtl ebony
v 0.275066 0.000000 -0.199847
v 0.291246 0.090000 -0.211603
v 0.320762 0.090000 -0.163437
v 0.302942 0.000000 -0.154357
vt 0 0
vt 1 0
vt 1 1
vt 0 1
f 305/305 306/306 307/307 308/308
usemtl ebony
v 0.302942 0.000000 -0.154357
v 0.320762 0.090000 -0.163437
v 0.342380 0.090000 -0.111246
v 0.323359 0.000000 -0.105066
vt 0 0
vt 1 0
vt 1 1
vt 0 1
f 309/309 310/310 311/311 312/312
usemtl ebony
v 0.323359 0.000000 -0.105066
v 0.342380 0.090000 -0.111246
v 0.355568 0.090000 -0.056316
v 0.335814 0.000000 -0.053188
vt 0 0
vt 1 0
vt 1 1
vt 0 1
f 313/313 314/314 315/315 316/316
usemtl ebony
v 0.335814 0.000000 -0.053188
v 0.355568 0.090000 -0.056316
v 0.360000 0.090000 -0.000000
v 0.340000 0.000000 -0.000000
vt 0 0
vt 1 0
vt 1 1
vt 0 1
f 317/317 318/318 319/319 320/320
usemtl ebony
v 0.360000 0.090000 0.000000
v 0.300000 0.170000 0.000000
v 0.296307 0.170000 0.046930
v 0.355568 0.090000 0.056316
vt 0 0
vt 1 0
vt 1 1
vt 0 1
f 321/321 322/322 323/323 324/324
usemtl ebony
v 0.355568 0.090000 0.056316
v 0.296307 0.170000 0.046930
v 0.285317 0.170000 0.092705
v 0.342380 0.090000 0.111246
vt 0 0
vt 1 0
vt 1 1
vt 0 1
f 325/325 326/326 327/327 328/328
usemtl ebony
v 0.342380 0.090000 0.111246
v 0.285317 0.170000 0.092705
v 0.267302 0.170000 0.136197
v 0.320762 0.090000 0.163437
vt 0 0
vt 1 0
vt 1 1
vt 0 1
f 329/329 330/330 331/331 332/332
usemtl ebony
v 0.320762 0.090000 0.163437
v 0.267302 0.170000 0.136197
v 0.242705 0.170000 0.176336
v 0.291246 0.090000 0.211603
vt 0 0
vt 1 0
vt 1 1
vt 0 1
f 333/333 334/334 335/335 336/336
usemtl ebony
v 0.291246 0.090000 0.211603
v 0.242705 0.170000 0.176336
v 0.212132 0.170000 0.212132
v 0.254558 0.090000 0.254558
vt 0 0
vt 1 0
vt 1 1
vt 0 1
f 337/337 338/338 339/339 340/340
usemtl ebony
v 0.254558 0.090000 0.254558
v 0.212132 0.170000 0.212132
v 0.176336 0.170000 0.242705
v 0.211603 0.090000 0.291246
vt 0 0
vt 1 0
vt 1 1
vt 0 1
f 341/341 342/342 343/343 344/344
usemtl ebony
v 0.211603 0.090000 0.291246
v 0.176336 0.170000 0.242705
v 0.136197 0.170000 0.267302
v 0.163437 0.090000 0.320762
vt 0 0
vt 1 0
vt 1 1
vt 0 1
f 345/345 346/346 347/347 348/348
usemtl ebony
v 0.163437 0.090000 0.320762
v 0.136197 0.170000 0.267302
v 0.092705 0.170000 0.285317
v 0.111246 0.090000 0.342380
vt 0 0
vt 1 0
vt 1 1
vt 0 1
f 349/349 350/350 351/351 352/352
usemtl ebony
v 0.111246 0.090000 0.342380
v 0.092705 0.170000 0.285317
v 0.046930 0.170000 0.296307
v 0.056316 0.090000 0.355568
vt 0 0
vt 1 0
vt 1 1
vt 0 1
f 353/353 354/354 355/355 356/356
usemtl ebony
v 0.056316 0.090000 0.355568
v 0.046930 0.170000 0.296307
v 0.000000 0.170000 0.300000
v 0.000000 0.090000 0.360000
vt 0 0
vt 1 0
vt 1 1
vt 0 1
f 357/357 358/358 359/359 360/360
usemtl ebony
v 0.000000 0.090000 0.360000
v 0.000000 0.170000 0.300000
v -0.046930 0.170000 0.296307
v -0.056316 0.090000 0.355568
vt 0 0
vt 1 0
vt 1 1
vt 0 1
f 361/361 362/362 363/363 364/364
usemtl ebony
v -0.056316 0.090000 0.355568
v -0.046930 0.170000 0.296307
v -0.092705 0.170000 0.285317
v -0.111246 0.090000 0.342380
vt 0 0
vt 1 0
vt 1 1
vt 0 1
f 365/365 366/366 367/367 368/368
usemtl ebony
v -0.111246 0.090000 0.342380
v -0.092705 0.170000 0.285317
v -0.136197 0.170000 0.267302
v -0.163437 0.090000 0.320762
vt 0 0
vt 1 0
vt 1 1
vt 0 1
f 369/369 370/370 371/371 372/372
usemtl ebony
v -0.163437 0.090000 0.320762
v -0.136197 0.170000 0.267302
v -0.176336 0.170000 0.242705
v -0.211603 0.090000 0.291246
vt 0 0
vt 1 0
vt 1 1
vt 0 1
f 373/373 374/374 375/375 376/376
usemtl ebony
v -0.211603 0.090000 0.291246
v -0.176336 0.170000 0.242705
v -0.212132 0.170000 0.212132
v -0.254558 0.090000 0.254558
vt 0 0
vt 1 0
vt 1 1
vt 0 1
f 377/377 378/378 379/379 380/380
usemtl ebony
v -0.254558 0.090000 0.254558
v -0.212132 0.170000 0.212132
v -0.242705 0.170000 0.176336
v -0.291246 0.090000 0.211603
vt 0 0
vt 1 0
vt 1 1
vt 0 1
f 381/381 382/382 383/383 384/384
usemtl ebony
v -0.291246 0.090000 0.211603
v -0.242705 0.170000 0.176336
v -0.267302 0.170000 0.136197
v -0.320762 0.090000 0.163437
vt 0 0
vt 1 0
vt 1 1
vt 0 1
f 385/385 386/386 387/387 388/388
usemtl ebony
v -0.320762 0.090000 0.163437
v -0.267302 0.170000 0.136197
v -0.285317 0.170000 0.092705
v -0.342380 0.090000 0.111246
vt 0 0
vt 1 0
vt 1 1
vt 0 1
f 389/389 390/390 391/391 392/392
usemtl ebony
v -0.342380 0.090000 0.111246
v -0.285317 0.170000 0.092705
v -0.296307 0.170000 0.046930
v -0.355568 0.090000 0.056316
vt 0 0
vt 1 0
vt 1 1
vt 0 1
f 393/393 394/394 395/395 396/396
usemtl ebony
v -0.355568 0.090000 0.056316
v -0.296307 0.170000 0.046930
v -0.300000 0.170000 0.000000
v -0.360000 0.090000 0.000000
vt 0 0
vt 1 0
vt 1 1
vt 0 1
f 397/397 398/398 399/399 400/400
usemtl ebony
v -0.360000 0.090000 0.000000
v -0.300000 0.170000 0.000000
v -0.296307 0.170000 -0.046930
v -0.355568 0.090000 -0.056316
vt 0 0
vt 1 0
vt 1 1
vt 0 1
f 401/401 402/402 403/403 404/404
usemtl ebony
v -0.355568 0.090000 -0.056316
v -0.296307 0.170000 -0.046930
v -0.285317 0.170000 -0.092705
v -0.342380 0.090000 -0.111246
vt 0 0
vt 1 0
vt 1 1
vt 0 1
f 405/405 406/406 407/407 408/408
usemtl ebony
v -0.342380 0.090000 -0.111246
v -0.285317 0.170000 -0.092705
v -0.267302 0.170000 -0.136197
v -0.320762 0.090000 -0.163437
vt 0 0
vt 1 0
vt 1 1
vt 0 1
f 409/409 410/410 411/411 412/412
usemtl ebony
v -0.320762 0.090000 -0.163437
v -0.267302 0.170000 -0.136197
v -0.242705 0.170000 -0.176336
v -0.291246 0.090000 -0.211603
vt 0 0
vt 1 0
vt 1 1
vt 0 1
f 413/413 414/414 415/415 416/416
usemtl ebony
v -0.291246 0.090000 -0.211603
v -0.242705 0.170000 -0.176336
v -0.212132 0.170000 -0.212132
v -0.254558 0.090000 -0.254558
vt 0 0
vt 1 0
vt 1 1
vt 0 1
f 417/417 418/418 419/419 420/420
usemtl ebony
v -0.254558 0.090000 -0.254558
v -0.212132 0.170000 -0.212132
v -0.176336 0.170000 -0.242705
v -0.211603 0.090000 -0.291246
vt 0 0
vt 1 0
vt 1 1
vt 0 1
f 421/421 422/422 423/423 424/424
usemtl ebony
v -0.211603 0.090000 -0.291246
v -0.176336 0.170000 -0.242705
v -0.136197 0.170000 -0.267302
v -0.163437 0.090000 -0.320762
vt 0 0
vt 1 0
vt 1 1
vt 0 1
f 425/425 426/426 427/427 428/428
usemtl ebony
v -0.163437 0.090000 -0.320762
v -0.136197 0.170000 -0.267302
v -0.092705 0.170000 -0.285317
v -0.111246 0.090000 -0.342380
vt 0 0
vt 1 0
vt 1 1
vt 0 1
f 429/429 430/430 431/431 432/432
usemtl ebony
v -0.111246 0.090000 -0.342380
v -0.092705 0.170000 -0.285317
v -0.046930 0.170000 -0.296307
v -0.056316 0.090000 -0.355568
vt 0 0
vt 1 0
vt 1 1
vt 0 1
f 433/433 434/434 435/435 436/436
usemtl ebony
v -0.056316 0.090000 -0.355568
v -0.046930 0.170000 -0.296307
v -0.000000 0.170000 -0.300000
v -0.000000 0.090000 -0.360000
vt 0 0
vt 1 0
vt 1 1
vt 0 1
f 437/437 438/438 439/439 440/440
usemtl ebony
v -0.000000 0.090000 -0.360000
v -0.000000 0.170000 -0.300000
v 0.046930 0.170000 -0.296307
v 0.056316 0.090000 -0.355568
vt 0 0
vt 1 0
vt 1 1
vt 0 1
f 441/441 442/442 443/443 444/444
usemtl ebony
v 0.056316 0.090000 -0.355568
v 0.046930 0.170000 -0.296307
v 0.092705 0.170000 -0.285317
v 0.111246 0.090000 -0.342380
vt 0 0
vt 1 0
vt 1 1
vt 0 1
f 445/445 446/446 447/447 448/448
usemtl ebony
v 0.111246 0.090000 -0.342380
v 0.092705 0.170000 -0.285317
v 0.136197 0.170000 -0.267302
v 0.163437 0.090000 -0.320762
vt 0 0
vt 1 0
vt 1 1
vt 0 1
f 449/449 450/450 451/451 452/452
usemtl ebony
v 0.163437 0.090000 -0.320762
v 0.136197 0.170000 -0.267302
v 0.176336 0.170000 -0.242705
v 0.211603 0.090000 -0.291246
vt 0 0
vt 1 0
vt 1 1
vt 0 1
f 453/453 454/454 455/455 456/456
usemtl ebony
v 0.211603 0.090000 -0.291246
v 0.176336 0.170000 -0.242705
v 0.212132 0.170000 -0.212132
v 0.254558 0.090000 -0.254558
vt 0 0
vt 1 0
vt 1 1
vt 0 1
f 457/457 458/458 459/459 460/460
usemtl ebony
v 0.254558 0.090000 -0.254558
v 0.212132 0.170000 -0.212132
v 0.242705 0.170000 -0.176336
v 0.291246 0.090000 -0.211603
vt 0 0
vt 1 0
vt 1 1
vt 0 1
f 461/461 462/462 463/463 464/464
usemtl ebony
v 0.291246 0.090000 -0.211603
v 0.242705 0.170000 -0.176336
v 0.267302 0.170000 -0.136197
v 0.320762 0.090000 -0.163437
vt 0 0
vt 1 0
vt 1 1
vt 0 1
f 465/465 466/466 467/467 468/468
usemtl ebony
v 0.320762 0.090000 -0.163437
v 0.267302 0.170000 -0.136197
v 0.285317 0.170000 -0.092705
v 0.342380 0.090000 -0.111246
vt 0 0
vt 1 0
vt 1 1
vt 0 1
f 469/469 470/470 471/471 472/472
usemtl ebony
v 0.342380 0.090000 -0.111246
v 0.285317 0.170000 -0.092705
v 0.296307 0.170000 -0.046930
v 0.355568 0.090000 -0.056316
vt 0 0
vt 1 0
vt 1 1
vt 0 1
f 473/473 474/474 475/475 476/476
usemtl ebony
v 0.355568 0.090000 -0.056316
v 0.296307 0.170000 -0.046930
v 0.300000 0.170000 -0.000000
v 0.360000 0.090000 -0.000000
vt 0 0
vt 1 0
vt 1 1
vt 0 1
f 477/477 478/478 479/479 480/480
usemtl ebony
v 0.300000 0.170000 0.000000
v 0.260000 0.200000 0.000000
v 0.256799 0.200000 0.040673
v 0.296307 0.170000 0.046930
vt 0 0
vt 1 0
vt 1 1
vt 0 1
f 481/481 482/482 483/483 484/484
usemtl ebony
v 0.296307 0.170000 0.046930
v 0.256799 0.200000 0.040673
v 0.247275 0.200000 0.080344
v 0.285317 0.170000 0.092705
vt 0 0
vt 1 0
vt 1 1
vt 0 1
f 485/485 486/486 487/487 488/488
usemtl ebony
v 0.285317 0.170000 0.092705
v 0.247275 0.200000 0.080344
v 0.231662 0.200000 0.118038
v 0.267302 0.170000 0.136197
vt 0 0
vt 1 0
vt 1 1
vt 0 1
f 489/489 490/490 491/491 492/492
usemtl ebony
v 0.267302 0.170000 0.136197
v 0.231662 0.200000 0.118038
v 0.210344 0.200000 0.152824
v 0.242705 0.170000 0.176336
vt 0 0
vt 1 0
vt 1 1
vt 0 1
f 493/493 494/494 495/495 496/496
usemtl ebony
v 0.242705 0.170000 0.176336
v 0.210344 0.200000 0.152824
v 0.183848 0.200000 0.183848
v 0.212132 0.170000 0.212132
vt 0 0
vt 1 0
vt 1 1
vt 0 1
f 497/497 498/498 499/499 500/500
usemtl ebony
v 0.212132 0.170000 0.212132
v 0.183848 0.200000 0.183848
v 0.152824 0.200000 0.210344
v 0.176336 0.170000 0.242705
vt 0 0
vt 1 0
vt 1 1
vt 0 1
f 501/501 502/502 503/503 504/504
usemtl ebony
v 0.176336 0.170000 0.242705
v 0.152824 0.200000 0.210344
v 0.118038 0.200000 0.231662
v 0.136197 0.170000 0.267302
vt 0 0
vt 1 0
vt 1 1
vt 0 1
f 505/505 506/506 507/507 508/508
usemtl ebony
v 0.136197 0.170000 0.267302
v 0.118038 0.200000 0.231662
v 0.080344 0.200000 0.247275
v 0.092705 0.170000 0.285317
vt 0 0
vt 1 0
vt 1 1
vt 0 1
f 509/509 510/510 511/511 512/512
usemtl ebony
v 0.092705 0.170000 0.285317
v 0.080344 0.200000 0.247275
v 0.040673 0.200000 0.256799
v 0.046930 0.170000 0.296307
vt 0 0
vt 1 0
vt 1 1
vt 0 1
f 513/513 514/514 515/515 516/516
usemtl ebony
v 0.046930 0.170000 0.296307
v 0.040673 0.200000 0.256799
v 0.000000 0.200000 0.260000
v 0.000000 0.170000 0.300000
vt 0 0
vt 1 0
vt 1 1
vt 0 1
f 517/517 518/518 519/519 520/520
usemtl ebony
v 0.000000 0.170000 0.300000
v 0.000000 0.200000 0.260000
v -0.040673 0.200000 0.256799
v -0.046930 0.170000 0.296307
vt 0 0
vt 1 0
vt 1 1
vt 0 1
f 521/521 522/522 523/523 524/524
usemtl ebony
v -0.046930 0.170000 0.296307
v -0.040673 0.200000 0.256799
v -0.080344 0.200000 0.247275
v -0.092705 0.170000 0.285317
vt 0 0
vt 1 0
vt 1 1
vt 0 1
f 525/525 526/526 527/527 528/528
usemtl ebony
v -0.092705 0.170000 0.285317
v -0.080344 0.200000 0.247275
v -0.118038 0.200000 0.231662
v -0.136197 0.170000 0.267302
vt 0 0
vt 1 0
vt 1 1
vt 0 1
f 529/529 530/530 531/531 532/532
usemtl ebony
v -0.136197 0.170000 0.267302
v -0.118038 0.200000 0.231662
v -0.152824 0.200000 0.210344
v -0.176336 0.170000 0.242705
vt 0 0
vt 1 0
vt 1 1
vt 0 1
f 533/533 534/534 535/535 536/536
usemtl ebony
v -0.176336 0.170000 0.242705
v -0.152824 0.200000 0.210344
v -0.183848 0.200000 0.183848
v -0.212132 0.170000 0.212132
vt 0 0
vt 1 0
vt 1 1
vt 0 1
f 537/537 538/538 539/539 540/540
usemtl ebony
v -0.212132 0.170000 0.212132
v -0.183848 0.200000 0.183848
v -0.210344 0.200000 0.152824
v -0.242705 0.170000 0.176336
vt 0 0
vt 1 0
vt 1 1
vt 0 1
f 541/541 542/542 543/543 544/544
usemtl ebony
v -0.242705 0.170000 0.176336
v -0.210344 0.200000 0.152824
v -0.231662 0.200000 0.118038
v -0.267302 0.170000 0.136197
vt 0 0
vt 1 0
vt 1 1
vt 0 1
f 545/545 546/546 547/547 548/548
usemtl ebony
v -0.267302 0.170000 0.136197
v -0.231662 0.200000 0.118038
v -0.247275 0.200000 0.080344
v -0.285317 0.170000 0.092705
vt 0 0
vt 1 0
vt 1 1
vt 0 1
f 549/549 550/550 551/551 552/552
usemtl ebony
v -0.285317 0.170000 0.092705
v -0.247275 0.200000 0.080344
v -0.256799 0.200000 0.040673
v -0.296307 0.170000 0.046930
vt 0 0
vt 1 0
vt 1 1
vt 0 1
f 553/553 554/554 555/555 556/556
usemtl ebony
v -0.296307 0.170000 0.046930
v -0.256799 0.200000 0.040673
v -0.260000 0.200000 0.000000
v -0.300000 0.170000 0.000000
vt 0 0
vt 1 0
vt 1 1
vt 0 1
f 557/557 558/558 559/559 560/560
usemtl ebony
v -0.300000 0.170000 0.000000
v -0.260000 0.200000 0.000000
v -0.256799 0.200000 -0.040673
v -0.296307 0.170000 -0.046930
vt 0 0
vt 1 0
vt 1 1
vt 0 1
f 561/561 562/562 563/563 564/564
usemtl ebony
v -0.296307 0.170000 -0.046930
v -0.256799 0.200000 -0.040673
v -0.247275 0.200000 -0.080344
v -0.285317 0.170000 -0.092705
vt 0 0
vt 1 0
vt 1 1
vt 0 1
f 565/565 566/566 567/567 568/568
usemtl ebony
v -0.285317 0.170000 -0.092705
v -0.247275 0.200000 -0.080344
v -0.231662 0.200000 -0.118038
v -0.267302 0.170000 -0.136197
vt 0 0
vt 1 0
vt 1 1
vt 0 1
f 569/569 570/570 571/571 572/572
usemtl ebony
v -0.267302 0.170000 -0.136197
v -0.231662 0.200000 -0.118038
v -0.210344 0.200000 -0.152824
v -0.242705 0.170000 -0.176336
vt 0 0
vt 1 0
vt 1 1
vt 0 1
f 573/573 574/574 575/575 576/576
usemtl ebony
v -0.242705 0.170000 -0.176336
v -0.210344 0.200000 -0.152824
v -0.183848 0.200000 -0.183848
v -0.212132 0.170000 -0.212132
vt 0 0
vt 1 0
vt 1 1
vt 0 1
f 577/577 578/578 579/579 580/580
usemtl ebony
v -0.212132 0.170000 -0.212132
v -0.183848 0.200000 -0.183848
v -0.152824 0.200000 -0.210344
v -0.176336 0.170000 -0.242705
vt 0 0
vt 1 0
vt 1 1
vt 0 1
f 581/581 582/582 583/583 584/584
usemtl ebony
v -0.176336 0.170000 -0.242705
v -0.152824 0.200000 -0.210344
v -0.118038 0.200000 -0.231662
v -0.136197 0.170000 -0.267302
vt 0 0
vt 1 0
vt 1 1
vt 0 1
f 585/585 586/586 587/587 588/588
usemtl ebony
v -0.136197 0.170000 -0.267302
v -0.118038 0.200000 -0.231662
v -0.080344 0.200000 -0.247275
v -0.092705 0.170000 -0.285317
vt 0 0
vt 1 0
vt 1 1
vt 0 1
f 589/589 590/590 591/591 592/592
usemtl ebony
v -0.092705 0.170000 -0.285317
v -0.080344 0.200000 -0.247275
v -0.040673 0.200000 -0.256799
v -0.046930 0.170000 -0.296307
vt 0 0
vt 1 0
vt 1 1
vt 0 1
f 593/593 594/594 595/595 596/596
usemtl ebony
v -0.046930 0.170000 -0.296307
v -0.040673 0.200000 -0.256799
v -0.000000 0.200000 -0.260000
v -0.000000 0.170000 -0.300000
vt 0 0
vt 1 0
vt 1 1
vt 0 1
f 597/597 598/598 599/599 600/600
usemtl ebony
v -0.000000 0.170000 -0.300000
v -0.000000 0.200000 -0.260000
v 0.040673 0.200000 -0.256799
v 0.046930 0.170000 -0.296307
vt 0 0
vt 1 0
vt 1 1
vt 0 1
f 601/601 602/602 603/603 604/604
usemtl ebony
v 0.046930 0.170000 -0.296307
v 0.040673 0.200000 -0.256799
v 0.080344 0.200000 -0.247275
v 0.092705 0.170000 -0.285317
vt 0 0
vt 1 0
vt 1 1
vt 0 1
f 605/605 606/606 607/607 608/608
usemtl ebony
v 0.092705 0.170000 -0.285317
v 0.080344 0.200000 -0.247275
v 0.118038 0.200000 -0.231662
v 0.136197 0.170000 -0.267302
vt 0 0
vt 1 0
vt 1 1
vt 0 1
f 609/609 610/610 611/611 612/612
usemtl ebony
v 0.136197 0.170000 -0.267302
v 0.118038 0.200000 -0.231662
v 0.152824 0.200000 -0.210344
v 0.176336 0.170000 -0.242705
vt 0 0
vt 1 0
vt 1 1
vt 0 1
f 613/613 614/614 615/615 616/616
usemtl ebony
v 0.176336 0.170000 -0.242705
v 0.152824 0.200000 -0.210344
v 0.183848 0.200000 -0.183848
v 0.212132 0.170000 -0.212132
vt 0 0
vt 1 0
vt 1 1
vt 0 1
f 617/617 618/618 619/619 620/620
usemtl ebony
v 0.212132 0.170000 -0.212132
v 0.183848 0.200000 -0.183848
v 0.210344 0.200000 -0.152824
v 0.242705 0.170000 -0.176336
vt 0 0
vt 1 0
vt 1 1
vt 0 1
f 621/621 622/622 623/623 624/624
usemtl ebony
v 0.242705 0.170000 -0.176336
v 0.210344 0.200000 -0.152824
v 0.231662 0.200000 -0.118038
v 0.267302 0.170000 -0.136197
vt 0 0
vt 1 0
vt 1 1
vt 0 1
f 625/625 626/626 627/627 628/628
usemtl ebony
v 0.267302 0.170000 -0.136197
v 0.231662 0.200000 -0.118038
v 0.247275 0.200000 -0.080344
v 0.285317 0.170000 -0.092705
vt 0 0
vt 1 0
vt 1 1
vt 0 1
f 629/629 630/630 631/631 632/632
usemtl ebony
v 0.285317 0.170000 -0.092705
v 0.247275 0.200000 -0.080344
v 0.256799 0.200000 -0.040673
v 0.296307 0.170000 -0.046930
vt 0 0
vt 1 0
vt 1 1
vt 0 1
f 633/633 634/634 635/635 636/636
usemtl ebony
v 0.296307 0.170000 -0.046930
v 0.256799 0.200000 -0.040673
v 0.260000 0.200000 -0.000000
v 0.300000 0.170000 -0.000000
vt 0 0
vt 1 0
vt 1 1
vt 0 1
f 637/637 638/638 639/639 640/640
usemtl ebony
v 0.260000 0.200000 0.000000
v 0.180000 0.320000 0.000000
v 0.177784 0.320000 0.028158
v 0.256799 0.200000 0.040673
vt 0 0
vt 1 0
vt 1 1
vt 0 1
f 641/641 642/642 643/643 644/644
usemtl ebony
v 0.256799 0.200000 0.040673
v 0.177784 0.320000 0.028158
v 0.171190 0.320000 0.055623
v 0.247275 0.200000 0.080344
vt 0 0
vt 1 0
vt 1 1
vt 0 1
f 645/645 646/646 647/647 648/648
usemtl ebony
v 0.247275 0.200000 0.080344
v 0.171190 0.320000 0.055623
v 0.160381 0.320000 0.081718
v 0.231662 0.200000 0.118038
vt 0 0
vt 1 0
vt 1 1
vt 0 1
f 649/649 650/650 651/651 652/652
usemtl ebony
v 0.231662 0.200000 0.118038
v 0.160381 0.320000 0.081718
v 0.145623 0.320000 0.105801
v 0.210344 0.200000 0.152824
vt 0 0
vt 1 0
vt 1 1
vt 0 1
f 653/653 654/654 655/655 656/656
usemtl ebony
v 0.210344 0.200000 0.152824
v 0.145623 0.320000 0.105801
v 0.127279 0.320000 0.127279
v 0.183848 0.200000 0.183848
vt 0 0
vt 1 0
vt 1 1
vt 0 1
f 657/657 658/658 659/659 660/660
usemtl ebony
v 0.183848 0.200000 0.183848
v 0.127279 0.320000 0.127279
v 0.105801 0.320000 0.145623
v 0.152824 0.200000 0.210344
vt 0 0
vt 1 0
vt 1 1
vt 0 1
f 661/661 662/662 663/663 664/664
usemtl ebony
v 0.152824 0.200000 0.210344
v 0.105801 0.320000 0.145623
v 0.081718 0.320000 0.160381
v 0.118038 0.200000 0.231662
vt 0 0
vt 1 0
vt 1 1
vt 0 1
f 665/665 666/666 667/667 668/668
usemtl ebony
v 0.118038 0.200000 0.231662
v 0.081718 0.320000 0.160381
v 0.055623 0.320000 0.171190
v 0.080344 0.200000 0.247275
vt 0 0
vt 1 0
vt 1 1
vt 0 1
f 669/669 670/670 671/671 672/672
usemtl ebony
v 0.080344 0.200000 0.247275
v 0.055623 0.320000 0.171190
v 0.028158 0.320000 0.177784
v 0.040673 0.200000 0.256799
vt 0 0
vt 1 0
vt 1 1
vt 0 1
f 673/673 674/674 675/675 676/676
usemtl ebony
v 0.040673 0.200000 0.256799
v 0.028158 0.320000 0.177784
v 0.000000 0.320000 0.180000
v 0.000000 0.200000 0.260000
vt 0 0
vt 1 0
vt 1 1
vt 0 1
f 677/677 678/678 679/679 680/680
usemtl ebony
v 0.000000 0.200000 0.260000
v 0.000000 0.320000 0.180000
v -0.028158 0.320000 0.177784
v -0.040673 0.200000 0.256799
vt 0 0
vt 1 0
vt 1 1
vt 0 1
f 681/681 682/682 683/683 684/684
usemtl ebony
v -0.040673 0.200000 0.256799
v -0.028158 0.320000 0.177784
v -0.055623 0.320000 0.171190
v -0.080344 0.200000 0.247275
vt 0 0
vt 1 0
vt 1 1
vt 0 1
f 685/685 686/686 687/687 688/688
usemtl ebony
v -0.080344 0.200000 0.247275
v -0.055623 0.320000 0.171190
v -0.081718 0.320000 0.160381
v -0.118038 0.200000 0.231662
vt 0 0
vt 1 0
vt 1 1
vt 0 1
f 689/689 690/690 691/691 692/692
usemtl ebony
v -0.118038 0.200000 0.231662
v -0.081718 0.320000 0.160381
v -0.105801 0.320000 0.145623
v -0.152824 0.200000 0.210344
vt 0 0
vt 1 0
vt 1 1
vt 0 1
f 693/693 694/694 695/695 696/696
usemtl ebony
v -0.152824 0.200000 0.210344
v -0.105801 0.320000 0.145623
v -0.127279 0.320000 0.127279
v -0.183848 0.200000 0.183848
vt 0 0
vt 1 0
vt 1 1
vt 0 1
f 697/697 698/698 699/699 700/700
usemtl ebony
v -0.183848 0.200000 0.183848
v -0.127279 0.320000 0.127279
v -0.145623 0.320000 0.105801
v -0.210344 0.200000 0.152824
vt 0 0
vt 1 0
vt 1 1
vt 0 1
f 701/701 702/702 703/703 704/704
usemtl ebony
v -0.210344 0.200000 0.152824
v -0.145623 0.320000 0.105801
v -0.160381 0.320000 0.081718
v -0.231662 0.200000 0.118038
vt 0 0
vt 1 0
vt 1 1
vt 0 1
f 705/705 706/706 707/707 708/708
usemtl ebony
v -0.231662 0.200000 0.118038
v -0.160381 0.320000 0.081718
v -0.171190 0.320000 0.055623
v -0.247275 0.200000 0.080344
vt 0 0
vt 1 0
vt 1 1
vt 0 1
f 709/709 710/710 711/711 712/712
usemtl ebony
v -0.247275 0.200000 0.080344
v -0.171190 0.320000 0.055623
v -0.177784 0.320000 0.028158
v -0.256799 0.200000 0.040673
vt 0 0
vt 1 0
vt 1 1
vt 0 1
f 713/713 714/714 715/715 716/716
usemtl ebony
v -0.256799 0.200000 0.040673
v -0.177784 0.320000 0.028158
v -0.180000 0.320000 0.000000
v -0.260000 0.200000 0.000000
vt 0 0
vt 1 0
vt 1 1
vt 0 1
f 717/717 718/718 719/719 720/720
usemtl ebony
v -0.260000 0.200000 0.000000
v -0.180000 0.320000 0.000000
v -0.177784 0.320000 -0.028158
v -0.256799 0.200000 -0.040673
vt 0 0
vt 1 0
vt 1 1
vt 0 1
f 721/721 722/722 723/723 724/724
usemtl ebony
v -0.256799 0.200000 -0.040673
v -0.177784 0.320000 -0.028158
v -0.171190 0.320000 -0.055623
v -0.247275 0.200000 -0.080344
vt 0 0
vt 1 0
vt 1 1
vt 0 1
f 725/725 726/726 727/727 728/728
usemtl ebony
v -0.247275 0.200000 -0.080344
v -0.171190 0.320000 -0.055623
v -0.160381 0.320000 -0.081718
v -0.231662 0.200000 -0.118038
vt 0 0
vt 1 0
vt 1 1
vt 0 1
f 729/729 730/730 731/731 732/732
usemtl ebony
v -0.231662 0.200000 -0.118038
v -0.160381 0.320000 -0.081718
v -0.145623 0.320000 -0.105801
v -0.210344 0.200000 -0.152824
vt 0 0
vt 1 0
vt 1 1
vt 0 1
f 733/733 734/734 735/735 736/736
usemtl ebony
v -0.210344 0.200000 -0.152824
v -0.145623 0.320000 -0.105801
v -0.127279 0.320000 -0.127279
v -0.183848 0.200000 -0.183848
vt 0 0
vt 1 0
vt 1 1
vt 0 1
f 737/737 738/738 739/739 740/740
usemtl ebony
v -0.183848 0.200000 -0.183848
v -0.127279 0.320000 -0.127279
v -0.105801 0.320000 -0.145623
v -0.152824 0.200000 -0.210344
vt 0 0
vt 1 0
vt 1 1
vt 0 1
f 741/741 742/742 743/743 744/744
usemtl ebony
v -0.152824 0.200000 -0.210344
v -0.105801 0.320000 -0.145623
v -0.081718 0.320000 -0.160381
v -0.118038 0.200000 -0.231662
vt 0 0
vt 1 0
vt 1 1
vt 0 1
f 745/745 746/746 747/747 748/748
usemtl ebony
v -0.118038 0.200000 -0.231662
v -0.081718 0.320000 -0.160381
v -0.055623 0.320000 -0.171190
v -0.080344 0.200000 -0.247275
vt 0 0
vt 1 0
vt 1 1
vt 0 1
f 749/749 750/750 751/751 752/752
usemtl ebony
v -0.080344 0.200000 -0.247275
v -0.055623 0.320000 -0.171190
v -0.028158 0.320000 -0.177784
v -0.040673 0.200000 -0.256799
vt 0 0
vt 1 0
vt 1 1
vt 0 1
f 753/753 754/754 755/755 756/756
usemtl ebony
v -0.040673 0.200000 -0.256799
v -0.028158 0.320000 -0.177784
v -0.000000 0.320000 -0.180000
v -0.000000 0.200000 -0.260000
vt 0 0
vt 1 0
vt 1 1
vt 0 1
f 757/757 758/758 759/759 760/760
usemtl ebony
v -0.000000 0.200000 -0.260000
v -0.000000 0.320000 -0.180000
v 0.028158 0.320000 -0.177784
v 0.040673 0.200000 -0.256799
vt 0 0
vt 1 0
vt 1 1
vt 0 1
f 761/761 762/762 763/763 764/764
usemtl ebony
v 0.040673 0.200000 -0.256799
v 0.028158 0.320000 -0.177784
v 0.055623 0.320000 -0.171190
v 0.080344 0.200000 -0.247275
vt 0 0
vt 1 0
vt 1 1
vt 0 1
f 765/765 766/766 767/767 768/768
usemtl ebony
v 0.080344 0.200000 -0.247275
v 0.055623 0.320000 -0.171190
v 0.081718 0.320000 -0.160381
v 0.118038 0.200000 -0.231662
vt 0 0
vt 1 0
vt 1 1
vt 0 1
f 769/769 770/770 771/771 772/772
usemtl ebony
v 0.118038 0.200000 -0.231662
v 0.081718 0.320000 -0.160381
v 0.105801 0.320000 -0.145623
v 0.152824 0.200000 -0.210344
vt 0 0
vt 1 0
vt 1 1
vt 0 1
f 773/773 774/774 775/775 776/776
usemtl ebony
v 0.152824 0.200000 -0.210344
v 0.105801 0.320000 -0.145623
v 0.127279 0.320000 -0.127279
v 0.183848 0.200000 -0.183848
vt 0 0
vt 1 0
vt 1 1
vt 0 1
f 777/777 778/778 779/779 780/780
usemtl ebony
v 0.183848 0.200000 -0.183848
v 0.127279 0.320000 -0.127279
v 0.145623 0.320000 -0.105801
v 0.210344 0.200000 -0.152824
vt 0 0
vt 1 0
vt 1 1
vt 0 1
f 781/781 782/782 783/783 784/784
usemtl ebony
v 0.210344 0.200000 -0.152824
v 0.145623 0.320000 -0.105801
v 0.160381 0.320000 -0.081718
v 0.231662 0.200000 -0.118038
vt 0 0
vt 1 0
vt 1 1
vt 0 1
f 785/785 786/786 787/787 788/788
usemtl ebony
v 0.231662 0.200000 -0.118038
v 0.160381 0.320000 -0.081718
v 0.171190 0.320000 -0.055623
v 0.247275 0.200000 -0.080344
vt 0 0
vt 1 0
vt 1 1
vt 0 1
f 789/789 790/790 791/791 792/792
usemtl ebony
v 0.247275 0.200000 -0.080344
v 0.171190 0.320000 -0.055623
v 0.177784 0.320000 -0.028158
v 0.256799 0.200000 -0.040673
vt 0 0
vt 1 0
vt 1 1
vt 0 1
f 793/793 794/794 795/795 796/796
usemtl ebony
v 0.256799 0.200000 -0.040673
v 0.177784 0.320000 -0.028158
v 0.180000 0.320000 -0.000000
v 0.260000 0.200000 -0.000000
vt 0 0
vt 1 0
vt 1 1
vt 0 1
f 797/797 798/798 799/799 800/800
usemtl ebony
v 0.180000 0.320000 0.000000
v 0.180000 0.500000 0.000000
v 0.177784 0.500000 0.028158
v 0.177784 0.320000 0.028158
vt 0 0
vt 1 0
vt 1 1
vt 0 1
f 801/801 802/802 803/803 804/804
usemtl ebony
v 0.177784 0.320000 0.028158
v 0.177784 0.500000 0.028158
v 0.171190 0.500000 0.055623
v 0.171190 0.320000 0.055623
vt 0 0
vt 1 0
vt 1 1
vt 0 1
f 805/805 806/806 807/807 808/808
usemtl ebony
v 0.171190 0.320000 0.055623
v 0.171190 0.500000 0.055623
v 0.160381 0.500000 0.081718
v 0.160381 0.320000 0.081718
vt 0 0
vt 1 0
vt 1 1
vt 0 1
f 809/809 810/810 811/811 812/812
usemtl ebony
v 0.160381 0.320000 0.081718
v 0.160381 0.500000 0.081718
v 0.145623 0.500000 0.105801
v 0.145623 0.320000 0.105801
vt 0 0
vt 1 0
vt 1 1
vt 0 1
f 813/813 814/814 815/815 816/816
usemtl ebony
v 0.145623 0.320000 0.105801
v 0.145623 0.500000 0.105801
v 0.127279 0.500000 0.127279
v 0.127279 0.320000 0.127279
vt 0 0
vt 1 0
vt 1 1
vt 0 1
f 817/817 818/818 819/819 820/820
usemtl ebony
v 0.127279 0.320000 0.127279
v 0.127279 0.500000 0.127279
v 0.105801 0.500000 0.145623
v 0.105801 0.320000 0.145623
vt 0 0
vt 1 0
vt 1 1
vt 0 1
f 821/821 822/822 823/823 824/824
usemtl ebony
v 0.105801 0.320000 0.145623
v 0.105801 0.500000 0.145623
v 0.081718 0.500000 0.160381
v 0.081718 0.320000 0.160381
vt 0 0
vt 1 0
vt 1 1
vt 0 1
f 825/825 826/826 827/827 828/828
usemtl ebony
v 0.081718 0.320000 0.160381
v 0.081718 0.500000 0.160381
v 0.055623 0.500000 0.171190
v 0.055623 0.320000 0.171190
vt 0 0
vt 1 0
vt 1 1
vt 0 1
f 829/829 830/830 831/831 832/832
usemtl ebony
v 0.055623 0.320000 0.171190
v 0.055623 0.500000 0.171190
v 0.028158 0.500000 0.177784
v 0.028158 0.320000 0.177784
vt 0 0
vt 1 0
vt 1 1
vt 0 1
f 833/833 834/834 835/835 836/836
usemtl ebony
v 0.028158 0.320000 0.177784
v 0.028158 0.500000 0.177784
v 0.000000 0.500000 0.180000
v 0.000000 0.320000 0.180000
vt 0 0
vt 1 0
vt 1 1
vt 0 1
f 837/837 838/838 839/839 840/840
usemtl ebony
v 0.000000 0.320000 0.180000
v 0.000000 0.500000 0.180000
v -0.028158 0.500000 0.177784
v -0.028158 0.320000 0.177784
vt 0 0
vt 1 0
vt 1 1
vt 0 1
f 841/841 842/842 843/843 844/844
usemtl ebony
v -0.028158 0.320000 0.177784
v -0.028158 0.500000 0.177784
v -0.055623 0.500000 0.171190
v -0.055623 0.320000 0.171190
vt 0 0
vt 1 0
vt 1 1
vt 0 1
f 845/845 846/846 847/847 848/848
usemtl ebony
v -0.055623 0.320000 0.171190
v -0.055623 0.500000 0.171190
v -0.081718 0.500000 0.160381
v -0.081718 0.320000 0.160381
vt 0 0
vt 1 0
vt 1 1
vt 0 1
f 849/849 850/850 851/851 852/852
usemtl ebony
v -0.081718 0.320000 0.160381
v -0.081718 0.500000 0.160381
v -0.105801 0.500000 0.145623
v -0.105801 0.320000 0.145623
vt 0 0
vt 1 0
vt 1 1
vt 0 1
f 853/853 854/854 855/855 856/856
usemtl ebony
v -0.105801 0.320000 0.145623
v -0.105801 0.500000 0.145623
v -0.127279 0.500000 0.127279
v -0.127279 0.320000 0.127279
vt 0 0
vt 1 0
vt 1 1
vt 0 1
f 857/857 858/858 859/859 860/860
usemtl ebony
v -0.127279 0.320000 0.127279
v -0.127279 0.500000 0.127279
v -0.145623 0.500000 0.105801
v -0.145623 0.320000 0.105801
vt 0 0
vt 1 0
vt 1 1
vt 0 1
f 861/861 862/862 863/863 864/864
usemtl ebony
v -0.145623 0.320000 0.105801
v -0.145623 0.500000 0.105801
v -0.160381 0.500000 0.081718
v -0.160381 0.320000 0.081718
vt 0 0
vt 1 0
vt 1 1
vt 0 1
f 865/865 866/866 867/867 868/868
usemtl ebony
v -0.160381 0.320000 0.081718
v -0.160381 0.500000 0.081718
v -0.171190 0.500000 0.055623
v -0.171190 0.320000 0.055623
vt 0 0
vt 1 0
vt 1 1
vt 0 1
f 869/869 870/870 871/871 872/872
usemtl ebony
v -0.171190 0.320000 0.055623
v -0.171190 0.500000 0.055623
v -0.177784 0.500000 0.028158
v -0.177784 0.320000 0.028158
vt 0 0
vt 1 0
vt 1 1
vt 0 1
f 873/873 874/874 875/875 876/876
usemtl ebony
v -0.177784 0.320000 0.028158
v -0.177784 0.500000 0.028158
v -0.180000 0.500000 0.000000
v -0.180000 0.320000 0.000000
vt 0 0
vt 1 0
vt 1 1
vt 0 1
f 877/877 878/878 879/879 880/880
usemtl ebony
v -0.180000 0.320000 0.000000
v -0.180000 0.500000 0.000000
v -0.177784 0.500000 -0.028158
v -0.177784 0.320000 -0.028158
vt 0 0
vt 1 0
vt 1 1
vt 0 1
f 881/881 882/882 883/883 884/884
usemtl ebony
v -0.177784 0.320000 -0.028158
v -0.177784 0.500000 -0.028158
v -0.171190 0.500000 -0.055623
v -0.171190 0.320000 -0.055623
vt 0 0
vt 1 0
vt 1 1
vt 0 1
f 885/885 886/886 887/887 888/888
usemtl ebony
v -0.171190 0.320000 -0.055623
v -0.171190 0.500000 -0.055623
v -0.160381 0.500000 -0.081718
v -0.160381 0.320000 -0.081718
vt 0 0
vt 1 0
vt 1 1
vt 0 1
f 889/889 890/890 891/891 892/892
usemtl ebony
v -0.160381 0.320000 -0.081718
v -0.160381 0.500000 -0.081718
v -0.145623 0.500000 -0.105801
v -0.145623 0.320000 -0.105801
vt 0 0
vt 1 0
vt 1 1
vt 0 1
f 893/893 894/894 895/895 896/896
usemtl ebony
v -0.145623 0.320000 -0.105801
v -0.145623 0.500000 -0.105801
v -0.127279 0.500000 -0.127279
v -0.127279 0.320000 -0.127279
vt 0 0
vt 1 0
vt 1 1
vt 0 1
f 897/897 898/898 899/899 900/900
usemtl ebony
v -0.127279 0.320000 -0.127279
v -0.127279 0.500000 -0.127279
v -0.105801 0.500000 -0.145623
v -0.105801 0.320000 -0.145623
vt 0 0
vt 1 0
vt 1 1
vt 0 1
f 901/901 902/902 903/903 904/904
usemtl ebony
v -0.105801 0.320000 -0.145623
v -0.105801 0.500000 -0.145623
v -0.081718 0.500000 -0.160381
v -0.081718 0.320000 -0.160381
vt 0 0
vt 1 0
vt 1 1
vt 0 1
f 905/905 906/906 907/907 908/908
usemtl ebony
v -0.081718 0.320000 -0.160381
v -0.081718 0.500000 -0.160381
v -0.055623 0.500000 -0.171190
v -0.055623 0.320000 -0.171190
vt 0 0
vt 1 0
vt 1 1
vt 0 1
f 909/909 910/910 911/911 912/912
usemtl ebony
v -0.055623 0.320000 -0.171190
v -0.055623 0.500000 -0.171190
v -0.028158 0.500000 -0.177784
v -0.028158 0.320000 -0.177784
vt 0 0
vt 1 0
vt 1 1
vt 0 1
f 913/913 914/914 915/915 916/916
usemtl ebony
v -0.028158 0.320000 -0.177784
v -0.028158 0.500000 -0.177784
v -0.000000 0.500000 -0.180000
v -0.000000 0.320000 -0.180000
vt 0 0
vt 1 0
vt 1 1
vt 0 1
f 917/917 918/918 919/919 920/920
usemtl ebony
v -0.000000 0.320000 -0.180000
v -0.000000 0.500000 -0.180000
v 0.028158 0.500000 -0.177784
v 0.028158 0.320000 -0.177784
vt 0 0
vt 1 0
vt 1 1
vt 0 1
f 921/921 922/922 923/923 924/924
usemtl ebony
v 0.028158 0.320000 -0.177784
v 0.028158 0.500000 -0.177784
v 0.055623 0.500000 -0.171190
v 0.055623 0.320000 -0.171190
vt 0 0
vt 1 0
vt 1 1
vt 0 1
f 925/925 926/926 927/927 928/928
usemtl ebony
v 0.055623 0.320000 -0.171190
v 0.055623 0.500000 -0.171190
v 0.081718 0.500000 -0.160381
v 0.081718 0.320000 -0.160381
vt 0 0
vt 1 0
vt 1 1
vt 0 1
f 929/929 930/930 931/931 932/932
usemtl ebony
v 0.081718 0.320000 -0.160381
v 0.081718 0.500000 -0.160381
v 0.105801 0.500000 -0.145623
v 0.105801 0.320000 -0.145623
vt 0 0
vt 1 0
vt 1 1
vt 0 1
f 933/933 934/934 935/935 936/936
usemtl ebony
v 0.105801 0.320000 -0.145623
v 0.105801 0.500000 -0.145623
v 0.127279 0.500000 -0.127279
v 0.127279 0.320000 -0.127279
vt 0 0
vt 1 0
vt 1 1
vt 0 1
f 937/937 938/938 939/939 940/940
usemtl ebony
v 0.127279 0.320000 -0.127279
v 0.127279 0.500000 -0.127279
v 0.145623 0.500000 -0.105801
v 0.145623 0.320000 -0.105801
vt 0 0
vt 1 0
vt 1 1
vt 0 1
f 941/941 942/942 943/943 944/944
usemtl ebony
v 0.145623 0.320000 -0.105801
v 0.145623 0.500000 -0.105801
v 0.160381 0.500000 -0.081718
v 0.160381 0.320000 -0.081718
vt 0 0
vt 1 0
vt 1 1
vt 0 1
f 945/945 946/946 947/947 948/948
usemtl ebony
v 0.160381 0.320000 -0.081718
v 0.160381 0.500000 -0.081718
v 0.171190 0.500000 -0.055623
v 0.171190 0.320000 -0.055623
vt 0 0
vt 1 0
vt 1 1
vt 0 1
f 949/949 950/950 951/951 952/952
usemtl ebony
v 0.171190 0.320000 -0.055623
v 0.171190 0.500000 -0.055623
v 0.177784 0.500000 -0.028158
v 0.177784 0.320000 -0.028158
vt 0 0
vt 1 0
vt 1 1
vt 0 1
f 953/953 954/954 955/955 956/956
usemtl ebony
v 0.177784 0.320000 -0.028158
v 0.177784 0.500000 -0.028158
v 0.180000 0.500000 -0.000000
v 0.180000 0.320000 -0.000000
vt 0 0
vt 1 0
vt 1 1
vt 0 1
f 957/957 958/958 959/959 960/960
usemtl ebony
v 0.180000 0.500000 0.000000
v 0.000000 0.500000 0.000000
v 0.000000 0.500000 0.000000
v 0.177784 0.500000 0.028158
vt 0 0
vt 1 0
vt 1 1
vt 0 1
f 961/961 962/962 963/963 964/964
usemtl ebony
v 0.177784 0.500000 0.028158
v 0.000000 0.500000 0.000000
v 0.000000 0.500000 0.000000
v 0.171190 0.500000 0.055623
vt 0 0
vt 1 0
vt 1 1
vt 0 1
f 965/965 966/966 967/967 968/968
usemtl ebony
v 0.171190 0.500000 0.055623
v 0.000000 0.500000 0.000000
v 0.000000 0.500000 0.000000
v 0.160381 0.500000 0.081718
vt 0 0
vt 1 0
vt 1 1
vt 0 1
f 969/969 970/970 971/971 972/972
usemtl ebony
v 0.160381 0.500000 0.081718
v 0.000000 0.500000 0.000000
v 0.000000 0.500000 0.000000
v 0.145623 0.500000 0.105801
vt 0 0
vt 1 0
vt 1 1
vt 0 1
f 973/973 974/974 975/975 976/976
usemtl ebony
v 0.145623 0.500000 0.105801
v 0.000000 0.500000 0.000000
v 0.000000 0.500000 0.000000
v 0.127279 0.500000 0.127279
vt 0 0
vt 1 0
vt 1 1
vt 0 1
f 977/977 978/978 979/979 980/980
usemtl ebony
v 0.127279 0.500000 0.127279
v 0.000000 0.500000 0.000000
v 0.000000 0.500000 0.000000
v 0.105801 0.500000 0.145623
vt 0 0
vt 1 0
vt 1 1
vt 0 1
f 981/981 982/982 983/983 984/984
usemtl ebony
v 0.105801 0.500000 0.145623
v 0.000000 0.500000 0.000000
v 0.000000 0.500000 0.000000
v 0.081718 0.500000 0.160381
vt 0 0
vt 1 0
vt 1 1
vt 0 1
f 985/985 986/986 987/987 988/988
usemtl ebony
v 0.081718 0.500000 0.160381
v 0.000000 0.500000 0.000000
v 0.000000 0.500000 0.000000
v 0.055623 0.500000 0.171190
vt 0 0
vt 1 0
vt 1 1
vt 0 1
f 989/989 990/990 991/991 992/992
usemtl ebony
v 0.055623 0.500000 0.171190
v 0.000000 0.500000 0.000000
v 0.000000 0.500000 0.000000
v 0.028158 0.500000 0.177784
vt 0 0
vt 1 0
vt 1 1
vt 0 1
f 993/993 994/994 995/995 996/996
usemtl ebony
v 0.028158 0.500000 0.177784
v 0.000000 0.500000 0.000000
v 0.000000 0.500000 0.000000
v 0.000000 0.500000 0.180000
vt 0 0
vt 1 0
vt 1 1
vt 0 1
f 997/997 998/998 999/999 1000/1000
usemtl ebony
v 0.000000 0.500000 0.180000
v 0.000000 0.500000 0.000000
v 0.000000 0.500000 0.000000
v -0.028158 0.500000 0.177784
vt 0 0
vt 1 0
vt 1 1
vt 0 1
f 1001/1001 1002/1002 1003/1003 1004/1004
usemtl ebony
v -0.028158 0.500000 0.177784
v 0.000000 0.500000 0.000000
v 0.000000 0.500000 0.000000
v -0.055623 0.500000 0.171190
vt 0 0
vt 1 0
vt 1 1
vt 0 1
f 1005/1005 1006/1006 1007/1007 1008/1008
usemtl ebony
v -0.055623 0.500000 0.171190
v 0.000000 0.500000 0.000000
v 0.000000 0.500000 0.000000
v -0.081718 0.500000 0.160381
vt 0 0
vt 1 0
vt 1 1
vt 0 1
f 1009/1009 1010/1010 1011/1011 1012/1012
usemtl ebony
v -0.081718 0.500000 0.160381
v 0.000000 0.500000 0.000000
v 0.000000 0.500000 0.000000
v -0.105801 0.500000 0.145623
vt 0 0
vt 1 0
vt 1 1
vt 0 1
f 1013/1013 1014/1014 1015/1015 1016/1016
usemtl ebony
v -0.105801 0.500000 0.145623
v 0.000000 0.500000 0.000000
v 0.000000 0.500000 0.000000
v -0.127279 0.500000 0.127279
vt 0 0
vt 1 0
vt 1 1
vt 0 1
f 1017/1017 1018/1018 1019/1019 1020/1020
usemtl ebony
v -0.127279 0.500000 0.127279
v 0.000000 0.500000 0.000000
v 0.000000 0.500000 0.000000
v -0.145623 0.500000 0.105801
vt 0 0
vt 1 0
vt 1 1
vt 0 1
f 1021/1021 1022/1022 1023/1023 1024/1024
usemtl ebony
v -0.145623 0.500000 0.105801
v 0.000000 0.500000 0.000000
v 0.000000 0.500000 0.000000
v -0.160381 0.500000 0.081718
vt 0 0
vt 1 0
vt 1 1
vt 0 1
f 1025/1025 1026/1026 1027/1027 1028/1028
usemtl ebony
v -0.160381 0.500000 0.081718
v 0.000000 0.500000 0.000000
v 0.000000 0.500000 0.000000
v -0.171190 0.500000 0.055623
vt 0 0
vt 1 0
vt 1 1
vt 0 1
f 1029/1029 1030/1030 1031/1031 1032/1032
usemtl ebony
v -0.171190 0.500000 0.055623
v 0.000000 0.500000 0.000000
v 0.000000 0.500000 0.000000
v -0.177784 0.500000 0.028158
vt 0 0
vt 1 0
vt 1 1
vt 0 1
f 1033/1033 1034/1034 1035/1035 1036/1036
usemtl ebony
v -0.177784 0.500000 0.028158
v 0.000000 0.500000 0.000000
v 0.000000 0.500000 0.000000
v -0.180000 0.500000 0.000000
vt 0 0
vt 1 0
vt 1 1
vt 0 1
f 1037/1037 1038/1038 1039/1039 1040/1040
usemtl ebony
v -0.180000 0.500000 0.000000
v 0.000000 0.500000 0.000000
v 0.000000 0.500000 0.000000
v -0.177784 0.500000 -0.028158
vt 0 0
vt 1 0
vt 1 1
vt 0 1
f 1041/1041 1042/1042 1043/1043 1044/1044
usemtl ebony
v -0.177784 0.500000 -0.028158
v 0.000000 0.500000 0.000000
v 0.000000 0.500000 0.000000
v -0.171190 0.500000 -0.055623
vt 0 0
vt 1 0
vt 1 1
vt 0 1
f 1045/1045 1046/1046 1047/1047 1048/1048
usemtl ebony
v -0.171190 0.500000 -0.055623
v 0.000000 0.500000 0.000000
v 0.000000 0.500000 0.000000
v -0.160381 0.500000 -0.081718
vt 0 0
vt 1 0
vt 1 1
vt 0 1
f 1049/1049 1050/1050 1051/1051 1052/1052
usemtl ebony
v -0.160381 0.500000 -0.081718
v 0.000000 0.500000 0.000000
v 0.000000 0.500000 0.000000
v -0.145623 0.500000 -0.105801
vt 0 0
vt 1 0
vt 1 1
vt 0 1
f 1053/1053 1054/1054 1055/1055 1056/1056
usemtl ebony
v -0.145623 0.500000 -0.105801
v 0.000000 0.500000 0.000000
v 0.000000 0.500000 0.000000
v -0.127279 0.500000 -0.127279
vt 0 0
vt 1 0
vt 1 1
vt 0 1
f 1057/1057 1058/1058 1059/1059 1060/1060
usemtl ebony
v -0.127279 0.500000 -0.127279
v 0.000000 0.500000 0.000000
v 0.000000 0.500000 0.000000
v -0.105801 0.500000 -0.145623
vt 0 0
vt 1 0
vt 1 1
vt 0 1
f 1061/1061 1062/1062 1063/1063 1064/1064
usemtl ebony
v -0.105801 0.500000 -0.145623
v 0.000000 0.500000 0.000000
v 0.000000 0.500000 0.000000
v -0.081718 0.500000 -0.160381
vt 0 0
vt 1 0
vt 1 1
vt 0 1
f 1065/1065 1066/1066 1067/1067 1068/1068
usemtl ebony
v -0.081718 0.500000 -0.160381
v 0.000000 0.500000 0.000000
v 0.000000 0.500000 0.000000
v -0.055623 0.500000 -0.171190
vt 0 0
vt 1 0
vt 1 1
vt 0 1
f 1069/1069 1070/1070 1071/1071 1072/1072
usemtl ebony
v -0.055623 0.500000 -0.171190
v 0.000000 0.500000 0.000000
v 0.000000 0.500000 0.000000
v -0.028158 0.500000 -0.177784
vt 0 0
vt 1 0
vt 1 1
vt 0 1
f 1073/1073 1074/1074 1075/1075 1076/1076
usemtl ebony
v -0.028158 0.500000 -0.177784
v 0.000000 0.500000 0.000000
v 0.000000 0.500000 0.000000
v -0.000000 0.500000 -0.180000
vt 0 0
vt 1 0
vt 1 1
vt 0 1
f 1077/1077 1078/1078 1079/1079 1080/1080
usemtl ebony
v -0.000000 0.500000 -0.180000
v 0.000000 0.500000 0.000000
v 0.000000 0.500000 0.000000
v 0.028158 0.500000 -0.177784
vt 0 0
vt 1 0
vt 1 1
vt 0 1
f 1081/1081 1082/1082 1083/1083 1084/1084
usemtl ebony
v 0.028158 0.500000 -0.177784
v 0.000000 0.500000 0.000000
v 0.000000 0.500000 0.000000
v 0.055623 0.500000 -0.171190
vt 0 0
vt 1 0
vt 1 1
vt 0 1
f 1085/1085 1086/1086 1087/1087 1088/1088
usemtl ebony
v 0.055623 0.500000 -0.171190
v 0.000000 0.500000 0.000000
v 0.000000 0.500000 0.000000
v 0.081718 0.500000 -0.160381
vt 0 0
vt 1 0
vt 1 1
vt 0 1
f 1089/1089 1090/1090 1091/1091 1092/1092
usemtl ebony
v 0.081718 0.500000 -0.160381
v 0.000000 0.500000 0.000000
v 0.000000 0.500000 0.000000
v 0.105801 0.500000 -0.145623
vt 0 0
vt 1 0
vt 1 1
vt 0 1
f 1093/1093 1094/1094 1095/1095 1096/1096
usemtl ebony
v 0.105801 0.500000 -0.145623
v 0.000000 0.500000 0.000000
v 0.000000 0.500000 0.000000
v 0.127279 0.500000 -0.127279
vt 0 0
vt 1 0
vt 1 1
vt 0 1
f 1097/1097 1098/1098 1099/1099 1100/1100
usemtl ebony
v 0.127279 0.500000 -0.127279
v 0.000000 0.500000 0.000000
v 0.000000 0.500000 0.000000
v 0.145623 0.500000 -0.105801
vt 0 0
vt 1 0
vt 1 1
vt 0 1
f 1101/1101 1102/1102 1103/1103 1104/1104
usemtl ebony
v 0.145623 0.500000 -0.105801
v 0.000000 0.500000 0.000000
v 0.000000 0.500000 0.000000
v 0.160381 0.500000 -0.081718
vt 0 0
vt 1 0
vt 1 1
vt 0 1
f 1105/1105 1106/1106 1107/1107 1108/1108
usemtl ebony
v 0.160381 0.500000 -0.081718
v 0.000000 0.500000 0.000000
v 0.000000 0.500000 0.000000
v 0.171190 0.500000 -0.055623
vt 0 0
vt 1 0
vt 1 1
vt 0 1
f 1109/1109 1110/1110 1111/1111 1112/1112
usemtl ebony
v 0.171190 0.500000 -0.055623
v 0.000000 0.500000 0.000000
v 0.000000 0.500000 0.000000
v 0.177784 0.500000 -0.028158
vt 0 0
vt 1 0
vt 1 1
vt 0 1
f 1113/1113 1114/1114 1115/1115 1116/1116
usemtl ebony
v 0.177784 0.500000 -0.028158
v 0.000000 0.500000 0.000000
v 0.000000 0.500000 0.000000
v 0.180000 0.500000 -0.000000
vt 0 0
vt 1 0
vt 1 1
vt 0 1
f 1117/1117 1118/1118 1119/1119 1120/1120
usemtl ebony
v 0.200000 0.400000 -0.120000
v -0.180000 0.400000 -0.120000
v 0.000000 0.850000 -0.120000
vt 0 0
vt 1 0
vt 1 1
f 1121/1121 1122/1122 1123/1123
usemtl ebony
v 0.130000 0.800000 -0.120000
v 0.200000 0.400000 -0.120000
v 0.000000 0.850000 -0.120000
vt 0 0
vt 1 0
vt 1 1
f 1124/1124 1125/1125 1126/1126
usemtl ebony
v 0.370000 0.830000 -0.120000
v 0.130000 0.800000 -0.120000
v 0.000000 0.850000 -0.120000
vt 0 0
vt 1 0
vt 1 1
f 1127/1127 1128/1128 1129/1129
usemtl ebony
v 0.390000 1.020000 -0.120000
v 0.370000 0.830000 -0.120000
v 0.000000 0.850000 -0.120000
vt 0 0
vt 1 0
vt 1 1
f 1130/1130 1131/1131 1132/1132
usemtl ebony
v 0.170000 1.180000 -0.120000
v 0.390000 1.020000 -0.120000
v 0.000000 0.850000 -0.120000
vt 0 0
vt 1 0
vt 1 1
f 1133/1133 1134/1134 1135/1135
usemtl ebony
v 0.040000 1.400000 -0.120000
v 0.170000 1.180000 -0.120000
v 0.000000 0.850000 -0.120000
vt 0 0
vt 1 0
vt 1 1
f 1136/1136 1137/1137 1138/1138
usemtl ebony
v -0.030000 1.160000 -0.120000
v 0.040000 1.400000 -0.120000
v 0.000000 0.850000 -0.120000
vt 0 0
vt 1 0
vt 1 1
f 1139/1139 1140/1140 1141/1141
usemtl ebony
v -0.180000 1.240000 -0.120000
v -0.030000 1.160000 -0.120000
v 0.000000 0.850000 -0.120000
vt 0 0
vt 1 0
vt 1 1
f 1142/1142 1143/1143 1144/1144
usemtl ebony
v -0.240000 0.900000 -0.120000
v -0.180000 1.240000 -0.120000
v 0.000000 0.850000 -0.120000
vt 0 0
vt 1 0
vt 1 1
f 1145/1145 1146/1146 1147/1147
usemtl ebony
v -0.180000 0.400000 -0.120000
v -0.240000 0.900000 -0.120000
v 0.000000 0.850000 -0.120000
vt 0 0
vt 1 0
vt 1 1
f 1148/1148 1149/1149 1150/1150
usemtl ebony
v 0.000000 0.850000 0.120000
v -0.180000 0.400000 0.120000
v 0.200000 0.400000 0.120000
vt 0 0
vt 1 0
vt 1 1
f 1151/1151 1152/1152 1153/1153
usemtl ebony
v 0.000000 0.850000 0.120000
v 0.200000 0.400000 0.120000
v 0.130000 0.800000 0.120000
vt 0 0
vt 1 0
vt 1 1
f 1154/1154 1155/1155 1156/1156
usemtl ebony
v 0.000000 0.850000 0.120000
v 0.130000 0.800000 0.120000
v 0.370000 0.830000 0.120000
vt 0 0
vt 1 0
vt 1 1
f 1157/1157 1158/1158 1159/1159
usemtl ebony
v 0.000000 0.850000 0.120000
v 0.370000 0.830000 0.120000
v 0.390000 1.020000 0.120000
vt 0 0
vt 1 0
vt 1 1
f 1160/1160 1161/1161 1162/1162
usemtl ebony
v 0.000000 0.850000 0.120000
v 0.390000 1.020000 0.120000
v 0.170000 1.180000 0.120000
vt 0 0
vt 1 0
vt 1 1
f 1163/1163 1164/1164 1165/1165
usemtl ebony
v 0.000000 0.850000 0.120000
v 0.170000 1.180000 0.120000
v 0.040000 1.400000 0.120000
vt 0 0
vt 1 0
vt 1 1
f 1166/1166 1167/1167 1168/1168
usemtl ebony
v 0.000000 0.850000 0.120000
v 0.040000 1.400000 0.120000
v -0.030000 1.160000 0.120000
vt 0 0
vt 1 0
vt 1 1
f 1169/1169 1170/1170 1171/1171
usemtl ebony
v 0.000000 0.850000 0.120000
v -0.030000 1.160000 0.120000
v -0.180000 1.240000 0.120000
vt 0 0
vt 1 0
vt 1 1
f 1172/1172 1173/1173 1174/1174
usemtl ebony
v 0.000000 0.850000 0.120000
v -0.180000 1.240000 0.120000
v -0.240000 0.900000 0.120000
vt 0 0
vt 1 0
vt 1 1
f 1175/1175 1176/1176 1177/1177
usemtl ebony
v 0.000000 0.850000 0.120000
v -0.240000 0.900000 0.120000
v -0.180000 0.400000 0.120000
vt 0 0
vt 1 0
vt 1 1
f 1178/1178 1179/1179 1180/1180
usemtl ebony
v -0.180000 0.400000 -0.120000
v 0.200000 0.400000 -0.120000
v 0.200000 0.400000 0.120000
v -0.180000 0.400000 0.120000
vt 0 0
vt 1 0
vt 1 1
vt 0 1
f 1181/1181 1182/1182 1183/1183 1184/1184
usemtl ebony
v 0.200000 0.400000 -0.120000
v 0.130000 0.800000 -0.120000
v 0.130000 0.800000 0.120000
v 0.200000 0.400000 0.120000
vt 0 0
vt 1 0
vt 1 1
vt 0 1
f 1185/1185 1186/1186 1187/1187 1188/1188
usemtl ebony
v 0.130000 0.800000 -0.120000
v 0.370000 0.830000 -0.120000
v 0.370000 0.830000 0.120000
v 0.130000 0.800000 0.120000
vt 0 0
vt 1 0
vt 1 1
vt 0 1
f 1189/1189 1190/1190 1191/1191 1192/1192
usemtl ebony
v 0.370000 0.830000 -0.120000
v 0.390000 1.020000 -0.120000
v 0.390000 1.020000 0.120000
v 0.370000 0.830000 0.120000
vt 0 0
vt 1 0
vt 1 1
vt 0 1
f 1193/1193 1194/1194 1195/1195 1196/1196
usemtl ebony
v 0.390000 1.020000 -0.120000
v 0.170000 1.180000 -0.120000
v 0.170000 1.180000 0.120000
v 0.390000 1.020000 0.120000
vt 0 0
vt 1 0
vt 1 1
vt 0 1
f 1197/1197 1198/1198 1199/1199 1200/1200
usemtl ebony
v 0.170000 1.180000 -0.120000
v 0.040000 1.400000 -0.120000
v 0.040000 1.400000 0.120000
v 0.170000 1.180000 0.120000
vt 0 0
vt 1 0
vt 1 1
vt 0 1
f 1201/1201 1202/1202 1203/1203 1204/1204
usemtl ebony
v 0.040000 1.400000 -0.120000
v -0.030000 1.160000 -0.120000
v -0.030000 1.160000 0.120000
v 0.040000 1.400000 0.120000
vt 0 0
vt 1 0
vt 1 1
vt 0 1
f 1205/1205 1206/1206 1207/1207 1208/1208
usemtl ebony
v -0.030000 1.160000 -0.120000
v -0.180000 1.240000 -0.120000
v -0.180000 1.240000 0.120000
v -0.030000 1.160000 0.120000
vt 0 0
vt 1 0
vt 1 1
vt 0 1
f 1209/1209 1210/1210 1211/1211 1212/1212
usemtl ebony
v -0.180000 1.240000 -0.120000
v -0.240000 0.900000 -0.120000
v -0.240000 0.900000 0.120000
v -0.180000 1.240000 0.120000
vt 0 0
vt 1 0
vt 1 1
vt 0 1
f 1213/1213 1214/1214 1215/1215 1216/1216
usemtl ebony
v -0.240000 0.900000 -0.120000
v -0.180000 0.400000 -0.120000
v -0.180000 0.400000 0.120000
v -0.240000 0.900000 0.120000
vt 0 0
vt 1 0
vt 1 1
vt 0 1
f 1217/1217 1218/1218 1219/1219 1220/1220
usemtl ivory
v 0.142500 1.042500 -0.135000
v 0.142500 1.097500 -0.135000
v 0.197500 1.097500 -0.135000
v 0.197500 1.042500 -0.135000
vt 0 0
vt 1 0
vt 1 1
vt 0 1
f 1221/1221 1222/1222 1223/1223 1224/1224
usemtl ivory
v 0.142500 1.042500 -0.115000
v 0.197500 1.042500 -0.115000
v 0.197500 1.097500 -0.115000
v 0.142500 1.097500 -0.115000
vt 0 0
vt 1 0
vt 1 1
vt 0 1
f 1225/1225 1226/1226 1227/1227 1228/1228
usemtl ivory
v 0.142500 1.042500 -0.135000
v 0.142500 1.042500 -0.115000
v 0.142500 1.097500 -0.115000
v 0.142500 1.097500 -0.135000
vt 0 0
vt 1 0
vt 1 1
vt 0 1
f 1229/1229 1230/1230 1231/1231 1232/1232
usemtl ivory
v 0.197500 1.042500 -0.135000
v 0.197500 1.097500 -0.135000
v 0.197500 1.097500 -0.115000
v 0.197500 1.042500 -0.115000
vt 0 0
vt 1 0
vt 1 1
vt 0 1
f 1233/1233 1234/1234 1235/1235 1236/1236
usemtl ivory
v 0.142500 1.042500 -0.135000
v 0.197500 1.042500 -0.135000
v 0.197500 1.042500 -0.115000
v 0.142500 1.042500 -0.115000
vt 0 0
vt 1 0
vt 1 1
vt 0 1
f 1237/1237 1238/1238 1239/1239 1240/1240
usemtl ivory
v 0.142500 1.097500 -0.135000
v 0.142500 1.097500 -0.115000
v 0.197500 1.097500 -0.115000
v 0.197500 1.097500 -0.135000
vt 0 0
vt 1 0
vt 1 1
vt 0 1
f 1241/1241 1242/1242 1243/1243 1244/1244
usemtl ivory
v 0.142500 1.042500 0.115000
v 0.142500 1.097500 0.115000
v 0.197500 1.097500 0.115000
v 0.197500 1.042500 0.115000
vt 0 0
vt 1 0
vt 1 1
vt 0 1
f 1245/1245 1246/1246 1247/1247 1248/1248
usemtl ivory
v 0.142500 1.042500 0.135000
v 0.197500 1.042500 0.135000
v 0.197500 1.097500 0.135000
v 0.142500 1.097500 0.135000
vt 0 0
vt 1 0
vt 1 1
vt 0 1
f 1249/1249 1250/1250 1251/1251 1252/1252
usemtl ivory
v 0.142500 1.042500 0.115000
v 0.142500 1.042500 0.135000
v 0.142500 1.097500 0.135000
v 0.142500 1.097500 0.115000
vt 0 0
vt 1 0
vt 1 1
vt 0 1
f 1253/1253 1254/1254 1255/1255 1256/1256
usemtl ivory
v 0.197500 1.042500 0.115000
v 0.197500 1.097500 0.115000
v 0.197500 1.097500 0.135000
v 0.197500 1.042500 0.135000
vt 0 0
vt 1 0
vt 1 1
vt 0 1
f 1257/1257 1258/1258 1259/1259 1260/1260
usemtl ivory
v 0.142500 1.042500 0.115000
v 0.197500 1.042500 0.115000
v 0.197500 1.042500 0.135000
v 0.142500 1.042500 0.135000
vt 0 0
vt 1 0
vt 1 1
vt 0 1
f 1261/1261 1262/1262 1263/1263 1264/1264
usemtl ivory
v 0.142500 1.097500 0.115000
v 0.142500 1.097500 0.135000
v 0.197500 1.097500 0.135000
v 0.197500 1.097500 0.115000
vt 0 0
vt 1 0
vt 1 1
vt 0 1
f 1265/1265 1266/1266 1267/1267 1268/1268
